<mxfile host="app.diagrams.net" modified="2021-05-17T01:42:48.467Z" agent="5.0 (Windows NT 10.0; Win64; x64) AppleWebKit/537.36 (KHTML, like Gecko) Chrome/90.0.4430.212 Safari/537.36" etag="76WvC8gnimpVzJiZwhZp" version="14.6.11" type="github">
  <diagram id="onAJnXxT8Nkg-IWg8Pun" name="第 1 页">
    <mxGraphModel dx="1422" dy="1931" grid="1" gridSize="10" guides="1" tooltips="1" connect="1" arrows="1" fold="1" page="1" pageScale="1" pageWidth="827" pageHeight="1169" math="0" shadow="0">
      <root>
        <mxCell id="0" />
        <mxCell id="1" parent="0" />
        <mxCell id="DTWknUlmrkSnQhSk17Vn-41" value="" style="rounded=1;whiteSpace=wrap;html=1;fontSize=14;fillColor=#e1d5e7;strokeColor=#9673a6;arcSize=3;" parent="1" vertex="1">
          <mxGeometry x="30" y="570" width="1140" height="170" as="geometry" />
        </mxCell>
        <mxCell id="DTWknUlmrkSnQhSk17Vn-40" value="" style="rounded=1;whiteSpace=wrap;html=1;fontSize=14;fillColor=#f8cecc;strokeColor=#b85450;arcSize=3;" parent="1" vertex="1">
          <mxGeometry x="30" y="249" width="1140" height="290" as="geometry" />
        </mxCell>
        <mxCell id="DTWknUlmrkSnQhSk17Vn-35" value="" style="rounded=1;whiteSpace=wrap;html=1;fontSize=14;fillColor=#dae8fc;strokeColor=#6c8ebf;arcSize=3;" parent="1" vertex="1">
          <mxGeometry x="30" y="-30" width="1140" height="240" as="geometry" />
        </mxCell>
        <mxCell id="DTWknUlmrkSnQhSk17Vn-20" value="" style="edgeStyle=orthogonalEdgeStyle;rounded=0;orthogonalLoop=1;jettySize=auto;html=1;fontSize=14;" parent="1" source="DTWknUlmrkSnQhSk17Vn-1" target="DTWknUlmrkSnQhSk17Vn-5" edge="1">
          <mxGeometry relative="1" as="geometry" />
        </mxCell>
        <mxCell id="DTWknUlmrkSnQhSk17Vn-1" value="打开cbb" style="rounded=0;whiteSpace=wrap;html=1;fillColor=#d5e8d4;strokeColor=#82b366;fontSize=14;" parent="1" vertex="1">
          <mxGeometry x="80" y="40" width="150" height="80" as="geometry" />
        </mxCell>
        <mxCell id="DTWknUlmrkSnQhSk17Vn-22" value="" style="edgeStyle=orthogonalEdgeStyle;rounded=0;orthogonalLoop=1;jettySize=auto;html=1;fontSize=14;" parent="1" source="DTWknUlmrkSnQhSk17Vn-5" target="DTWknUlmrkSnQhSk17Vn-6" edge="1">
          <mxGeometry relative="1" as="geometry" />
        </mxCell>
        <mxCell id="DTWknUlmrkSnQhSk17Vn-5" value="&lt;font style=&quot;font-size: 14px&quot;&gt;跳转至图标库系统&lt;br&gt;&lt;/font&gt;" style="rounded=0;whiteSpace=wrap;html=1;fillColor=#d5e8d4;strokeColor=#82b366;" parent="1" vertex="1">
          <mxGeometry x="290" y="40" width="150" height="80" as="geometry" />
        </mxCell>
        <mxCell id="DTWknUlmrkSnQhSk17Vn-23" value="" style="edgeStyle=orthogonalEdgeStyle;rounded=0;orthogonalLoop=1;jettySize=auto;html=1;fontSize=14;" parent="1" source="DTWknUlmrkSnQhSk17Vn-6" target="DTWknUlmrkSnQhSk17Vn-7" edge="1">
          <mxGeometry relative="1" as="geometry" />
        </mxCell>
        <mxCell id="DTWknUlmrkSnQhSk17Vn-6" value="&lt;span style=&quot;font-size: 14px&quot;&gt;浏览检索图标&lt;/span&gt;" style="rounded=0;whiteSpace=wrap;html=1;fillColor=#d5e8d4;strokeColor=#82b366;" parent="1" vertex="1">
          <mxGeometry x="510" y="40" width="150" height="80" as="geometry" />
        </mxCell>
        <mxCell id="DTWknUlmrkSnQhSk17Vn-24" value="" style="edgeStyle=orthogonalEdgeStyle;rounded=0;orthogonalLoop=1;jettySize=auto;html=1;fontSize=14;" parent="1" source="DTWknUlmrkSnQhSk17Vn-7" target="DTWknUlmrkSnQhSk17Vn-8" edge="1">
          <mxGeometry relative="1" as="geometry" />
        </mxCell>
        <mxCell id="DTWknUlmrkSnQhSk17Vn-7" value="&lt;span style=&quot;font-size: 14px&quot;&gt;修改图表相关参数&lt;/span&gt;" style="rounded=0;whiteSpace=wrap;html=1;fillColor=#d5e8d4;strokeColor=#82b366;" parent="1" vertex="1">
          <mxGeometry x="720" y="40" width="150" height="80" as="geometry" />
        </mxCell>
        <mxCell id="DTWknUlmrkSnQhSk17Vn-8" value="&lt;span style=&quot;font-size: 14px&quot;&gt;下载/拷贝代码使用图标&lt;/span&gt;" style="rounded=0;whiteSpace=wrap;html=1;fillColor=#d5e8d4;strokeColor=#82b366;" parent="1" vertex="1">
          <mxGeometry x="930" y="40" width="150" height="80" as="geometry" />
        </mxCell>
        <mxCell id="DTWknUlmrkSnQhSk17Vn-27" value="" style="edgeStyle=orthogonalEdgeStyle;rounded=0;orthogonalLoop=1;jettySize=auto;html=1;fontSize=14;" parent="1" source="DTWknUlmrkSnQhSk17Vn-9" target="DTWknUlmrkSnQhSk17Vn-11" edge="1">
          <mxGeometry relative="1" as="geometry" />
        </mxCell>
        <mxCell id="DTWknUlmrkSnQhSk17Vn-9" value="&lt;span style=&quot;font-size: 14px&quot;&gt;可视化配置图标相关属性&lt;/span&gt;" style="rounded=0;whiteSpace=wrap;html=1;fillColor=#d5e8d4;strokeColor=#82b366;" parent="1" vertex="1">
          <mxGeometry x="720" y="308" width="150" height="80" as="geometry" />
        </mxCell>
        <mxCell id="DTWknUlmrkSnQhSk17Vn-26" value="" style="edgeStyle=orthogonalEdgeStyle;rounded=0;orthogonalLoop=1;jettySize=auto;html=1;fontSize=14;" parent="1" source="DTWknUlmrkSnQhSk17Vn-10" target="DTWknUlmrkSnQhSk17Vn-9" edge="1">
          <mxGeometry relative="1" as="geometry" />
        </mxCell>
        <mxCell id="DTWknUlmrkSnQhSk17Vn-10" value="&lt;span style=&quot;font-size: 14px&quot;&gt;图标系统上传新增图标&lt;/span&gt;" style="rounded=0;whiteSpace=wrap;html=1;fillColor=#d5e8d4;strokeColor=#82b366;" parent="1" vertex="1">
          <mxGeometry x="930" y="308" width="150" height="80" as="geometry" />
        </mxCell>
        <mxCell id="DTWknUlmrkSnQhSk17Vn-28" value="" style="edgeStyle=orthogonalEdgeStyle;rounded=0;orthogonalLoop=1;jettySize=auto;html=1;fontSize=14;" parent="1" source="DTWknUlmrkSnQhSk17Vn-11" target="DTWknUlmrkSnQhSk17Vn-12" edge="1">
          <mxGeometry relative="1" as="geometry" />
        </mxCell>
        <mxCell id="DTWknUlmrkSnQhSk17Vn-11" value="&lt;span style=&quot;font-size: 14px&quot;&gt;调用后端接口&lt;/span&gt;" style="rounded=0;whiteSpace=wrap;html=1;fillColor=#d5e8d4;strokeColor=#82b366;" parent="1" vertex="1">
          <mxGeometry x="510" y="308" width="150" height="80" as="geometry" />
        </mxCell>
        <mxCell id="DTWknUlmrkSnQhSk17Vn-29" value="" style="edgeStyle=orthogonalEdgeStyle;rounded=0;orthogonalLoop=1;jettySize=auto;html=1;fontSize=14;" parent="1" source="DTWknUlmrkSnQhSk17Vn-12" target="DTWknUlmrkSnQhSk17Vn-14" edge="1">
          <mxGeometry relative="1" as="geometry" />
        </mxCell>
        <mxCell id="DTWknUlmrkSnQhSk17Vn-12" value="&lt;span style=&quot;font-size: 14px&quot;&gt;创建新的图标代码文件&lt;/span&gt;" style="rounded=0;whiteSpace=wrap;html=1;fillColor=#d5e8d4;strokeColor=#82b366;" parent="1" vertex="1">
          <mxGeometry x="290" y="308" width="150" height="80" as="geometry" />
        </mxCell>
        <mxCell id="DTWknUlmrkSnQhSk17Vn-31" value="" style="edgeStyle=orthogonalEdgeStyle;rounded=0;orthogonalLoop=1;jettySize=auto;html=1;fontSize=14;" parent="1" source="DTWknUlmrkSnQhSk17Vn-13" target="DTWknUlmrkSnQhSk17Vn-16" edge="1">
          <mxGeometry relative="1" as="geometry" />
        </mxCell>
        <mxCell id="DTWknUlmrkSnQhSk17Vn-13" value="&lt;span style=&quot;font-size: 14px&quot;&gt;生成新的组件库发布包&lt;/span&gt;" style="rounded=0;whiteSpace=wrap;html=1;fillColor=#d5e8d4;strokeColor=#82b366;" parent="1" vertex="1">
          <mxGeometry x="80" y="620" width="150" height="80" as="geometry" />
        </mxCell>
        <mxCell id="DTWknUlmrkSnQhSk17Vn-30" value="" style="edgeStyle=orthogonalEdgeStyle;rounded=0;orthogonalLoop=1;jettySize=auto;html=1;fontSize=14;" parent="1" source="DTWknUlmrkSnQhSk17Vn-14" target="DTWknUlmrkSnQhSk17Vn-13" edge="1">
          <mxGeometry relative="1" as="geometry" />
        </mxCell>
        <mxCell id="DTWknUlmrkSnQhSk17Vn-14" value="&lt;span style=&quot;font-size: 14px&quot;&gt;编译&lt;/span&gt;" style="rounded=0;whiteSpace=wrap;html=1;fillColor=#d5e8d4;strokeColor=#82b366;" parent="1" vertex="1">
          <mxGeometry x="80" y="308" width="150" height="80" as="geometry" />
        </mxCell>
        <mxCell id="DTWknUlmrkSnQhSk17Vn-32" value="" style="edgeStyle=orthogonalEdgeStyle;rounded=0;orthogonalLoop=1;jettySize=auto;html=1;fontSize=14;" parent="1" source="DTWknUlmrkSnQhSk17Vn-16" target="DTWknUlmrkSnQhSk17Vn-17" edge="1">
          <mxGeometry relative="1" as="geometry" />
        </mxCell>
        <mxCell id="DTWknUlmrkSnQhSk17Vn-16" value="&lt;span style=&quot;font-size: 14px&quot;&gt;在图标系统上点击发布&lt;/span&gt;" style="rounded=0;whiteSpace=wrap;html=1;fillColor=#d5e8d4;strokeColor=#82b366;" parent="1" vertex="1">
          <mxGeometry x="290" y="620" width="150" height="80" as="geometry" />
        </mxCell>
        <mxCell id="DTWknUlmrkSnQhSk17Vn-33" value="" style="edgeStyle=orthogonalEdgeStyle;rounded=0;orthogonalLoop=1;jettySize=auto;html=1;fontSize=14;" parent="1" source="DTWknUlmrkSnQhSk17Vn-17" target="DTWknUlmrkSnQhSk17Vn-18" edge="1">
          <mxGeometry relative="1" as="geometry" />
        </mxCell>
        <mxCell id="DTWknUlmrkSnQhSk17Vn-17" value="&lt;span style=&quot;font-size: 14px&quot;&gt;确认发布的相关参数&lt;/span&gt;" style="rounded=0;whiteSpace=wrap;html=1;fillColor=#d5e8d4;strokeColor=#82b366;" parent="1" vertex="1">
          <mxGeometry x="500" y="620" width="150" height="80" as="geometry" />
        </mxCell>
        <mxCell id="DTWknUlmrkSnQhSk17Vn-34" value="" style="edgeStyle=orthogonalEdgeStyle;rounded=0;orthogonalLoop=1;jettySize=auto;html=1;fontSize=14;" parent="1" source="DTWknUlmrkSnQhSk17Vn-18" target="DTWknUlmrkSnQhSk17Vn-19" edge="1">
          <mxGeometry relative="1" as="geometry" />
        </mxCell>
        <mxCell id="DTWknUlmrkSnQhSk17Vn-18" value="&lt;span style=&quot;font-size: 14px&quot;&gt;调用后端接口&lt;/span&gt;" style="rounded=0;whiteSpace=wrap;html=1;fillColor=#d5e8d4;strokeColor=#82b366;" parent="1" vertex="1">
          <mxGeometry x="720" y="620" width="150" height="80" as="geometry" />
        </mxCell>
        <mxCell id="DTWknUlmrkSnQhSk17Vn-19" value="&lt;span style=&quot;font-size: 14px&quot;&gt;发布至npm库&lt;/span&gt;" style="rounded=0;whiteSpace=wrap;html=1;fillColor=#d5e8d4;strokeColor=#82b366;" parent="1" vertex="1">
          <mxGeometry x="940" y="620" width="150" height="80" as="geometry" />
        </mxCell>
        <mxCell id="DTWknUlmrkSnQhSk17Vn-36" value="&lt;b&gt;&lt;font style=&quot;font-size: 16px&quot;&gt;图标浏览&lt;/font&gt;&lt;/b&gt;" style="text;html=1;strokeColor=none;fillColor=none;align=center;verticalAlign=middle;whiteSpace=wrap;rounded=0;fontSize=14;" parent="1" vertex="1">
          <mxGeometry x="520" y="-16" width="130" height="20" as="geometry" />
        </mxCell>
        <mxCell id="DTWknUlmrkSnQhSk17Vn-39" value="" style="edgeStyle=orthogonalEdgeStyle;rounded=0;orthogonalLoop=1;jettySize=auto;html=1;fontSize=14;exitX=0.5;exitY=1;exitDx=0;exitDy=0;" parent="1" source="DTWknUlmrkSnQhSk17Vn-8" target="DTWknUlmrkSnQhSk17Vn-10" edge="1">
          <mxGeometry relative="1" as="geometry">
            <mxPoint x="1005" y="180" as="sourcePoint" />
          </mxGeometry>
        </mxCell>
        <mxCell id="DTWknUlmrkSnQhSk17Vn-42" value="&lt;b&gt;&lt;font style=&quot;font-size: 16px&quot;&gt;图标新增&lt;/font&gt;&lt;/b&gt;" style="text;html=1;strokeColor=none;fillColor=none;align=center;verticalAlign=middle;whiteSpace=wrap;rounded=0;fontSize=14;" parent="1" vertex="1">
          <mxGeometry x="520" y="269" width="130" height="20" as="geometry" />
        </mxCell>
        <mxCell id="DTWknUlmrkSnQhSk17Vn-44" value="&lt;b&gt;&lt;font style=&quot;font-size: 16px&quot;&gt;图标发布&lt;/font&gt;&lt;/b&gt;" style="text;html=1;strokeColor=none;fillColor=none;align=center;verticalAlign=middle;whiteSpace=wrap;rounded=0;fontSize=14;" parent="1" vertex="1">
          <mxGeometry x="520" y="585" width="130" height="20" as="geometry" />
        </mxCell>
        <mxCell id="EOu6gvN0IOG-dr9LHzJ9-1" value="" style="shape=image;verticalLabelPosition=bottom;labelBackgroundColor=#ffffff;verticalAlign=top;aspect=fixed;imageAspect=0;image=data:image/png,iVBORw0KGgoAAAANSUhEUgAABZ8AAAKECAYAAABowkTTAAAgAElEQVR4Aey9eZQcx33nyX2ev2be7ns7/mM087Tz7Ll2vat9Gl8rXyON5ZFsWRqb1kmIsk1RAs1DoiRKJB8l26Isi6R4gJAogoJIEKJ4Uy1AJMEDJMjG1QAPXEQDjfsgjsbd3WgAfTd/+36ZGVmRWZnZWVUZWdVVn3qvOrMyIyMjv/mNX2R8KjrqounpaeGNBnigWA8ILxRAARRAgZZSgHau2HYOPdETD+ABPIAH8AAewAN4AA/ggTweuChPItJgJjxQmwdairhQGBRAARRAAb5oZ7ABHsADeAAP4AE8gAfwAB7AA3igCR4APjdBdEBubSB3NuoF50EBFEABFGgtBWZjW0KZ2/95gXvMPcYDeAAP4AE8gAfwAB5odw8An4HPfOvjwAOthVwoDQqgAAqgQLs/0HF9dFrwAB7AA3gAD+ABPIAH8AAeaEUPAJ8dgMdWvNGUqdwABOZBARRAARRoLQVoB8ttB9EbvfEAHsADeAAP4AE8gAfwAB5QDwCfgc+MfHbggdZCLpQGBVAABVCAB18efPEAHsADeAAP4AE8gAfwAB7AA+V7APjsADxi5PKN3Gqag3lQAAVQAAVaS4FWaycoD88KeAAP4AE8gAfwAB7AA3gAD3SCB4DPwGdGPjvwQGshF0qDAiiAAijQCQ91XCOdFzyAB/AAHsADeAAP4AE8gAdazQPAZwfgsdVuMuUpP/CAeVAABVAABVpLAdrC8ttCNEdzPIAH8AAewAN4AA/gATyAB4DPwGdGPjvwQGshF0qDAiiAAijAQy8PvXgAD+ABPIAH8AAewAN4AA90ggeGhobkyJEjsmfPHunt7ZXNmzfLhg0bvLeu6zbdp2k0rWtNgM8OwKPrm0b+rR8swTwogAIogAKtpQBtZ+u3ndwj7hEewAN4AA/gATyAB/AAHqjPA8PDw3LgwIEIaDbAeaalAmk9VvNwoT/wGfjsxFguzDqb8mwt5EJpUAAFUAAFZlMbQlnre+BGN3TDA3gAD+ABPIAH8AAe6DQPKDDevXt3OLJ5JtA8037Nq2gIDXwGPgOfHXgAzIMCKIACKNBaCnTaQyjXS8cLD+ABPIAH8AAewAN4AA+0twcOHTpUGHSOQ2nNuyj/AJ8dgMeibg75zN4g0VrIhdKgAAqgAArQps7eNpV7x73DA3gAD+ABPIAH8AAewAMVD5w/f176+vqcgWcDovUceq5GtQc+A58bNlGjJmzH48E8KIACKIACraVAO7Y1s+2aRkZGvB810X/l27VrF280wAN4AA/gATxQsAe0jdUfENM2d7Y9J1DeClhEC7TI8oD+QKD9A4IGFLta6rka/VFC4DPwmUbJgQdaC7lQGhRAARRAgawHOPa5f8DXTrB2iAcHB73nDhyJAiiAAiiAAihQvAL6TKNtrba5AGj3zzc8Q6Jx2R5QCOwKMs+UbyMAGvjsADyWbT7O13oBr/jHCHJEARRAARRoRAHayua2lToKSzvDvFAABVAABVAABdwroG2utr08/zT3+Qf90b9ID+j0F2WOeI7DaD13vVNwAJ+BzzRIDjzg/nGCM6AACqAACtSiQJEPfuRVe0dCR2CpbrxQAAVQAAVQAAXcK6Btrml7eW6p/bkFzdCsFT1QxhzPceAc/6xlqEcb4LMD8FjPjeCY9gpu7h8nOAMKoAAKoEAtCtDONred1TmeeaEACqAACqAACpSngLa9PP809/kH/dG/KA8cOnSoadNtxAG0lqXW6wI+A59rNk2tJuvE9OU9UnAmFEABFECBPAp0YlvUStcMfM7jUtKgAAqgAAqgQHEKAJ8Bn630LFhkWfrHR+WpgeNyx4kDcuvx/S3/1nJqebXc9egwPDzcMuDZgGgtUy3XAnwGPtdkmFrM1clpi3tkICcUQAEUQIEiFOjkNqkVrh34XISLyQMFUAAFUAAF8isAfAY+t8IzYNFlUICrMLf7wqC8/c6E9Mtky7+1nFpeLXc9AFqn0DHQt97lPcv3ynVL+uVDi4fluiVHRT/Xm5ceV+u0Pg3B5x2ndssnl14hH+v6O/nQz6+U9z95tbzv8WvkvY9+SX7jkWvlPY/dIH/5/A/lnzc8J3vPnpKpWQR6j5xcLst7Pigr1v2Z7Nh7j0xOzvwNxbmh/bJtzTelb80/yuHeR2Ri/Dxgdxbd8yKDYv5Hgvwpu7q6ZM6cObnempZXayjQc1iklndrlJpSNKrAyZMn5bHHHpM77rhDrr76au+t67pN9/EqX4EiYzx51d6ZAz6X73nOiAIogAIo0NkKAJ9rf17hGa/1NdMRxApyZwN0jpdRy63lr8VnjY56fnzlDvnthaPyrvlS9dbtur9eCF3L6OeG4PPu07vk0qe/KJ/yAPQV8uEuC0A/co0HoH/9oa/Iv/vpV+X/eOhGuW/bahmfnKxJ6FpuSpFpD598QV5c9wEPQO/YNz8XfB4e2idvrblBtq/9przd+xDwuUPBs/rQxUuB8ne/+13RCd7ttwJp/az7dalpGofPu2VpTtDtA/Glstu66N1L5si8nkF/y5m1Mi81r+hxVhb+6p6lMmeJnXNVipbeoNA5KchnbdNjGn4dF7l8vsibsYyWPCiy5Hhso/nYW0NZHxQ5YY4TkfnWud5cIjK/19pZw6oee3l3DQe0aNJVq1bJZZddJjfccIM8/PDD0tPT4711XbfpPk3T6Evrmf2F1NI9Vo5evUupX7pv/loJaqh1kNb7lGOsVOmrg7J2fqVMYQwQkcGeeZWYEMsgEi9i+4r8WOQzAnnV3jEBPhfpZvJCARRAARRAgZkVqAU+Dw4Oyt69e0WPqeWtx+ixPBvV/myEZvVppqOHZ8uI5zh81nJr+Wu59wcOHKgbDitUNuzhk48MyM9Xbffy0qV+Nvvqhc9atrzX0hB83nN6l1z+zBfkc09/MRwBHQXQ/ghoBdD/dvFX5d//7EZ5YveGWTEC+vDJ5+W5dX/gAejte+flhM97Zcvar8nWNTfIgd7FMjF+LveNyHvDSFdfgCpbt5kfBWpPYeBz/EiFT/rS/Tt27CgQPtsQyofREbgVFqQaWBUHk3yYZUOs8LSzYMXA57xF/XiXP0o6b/q0dCe6Rd71oA+gTYOSulwS5KLw2awHm7x8YttE09UIn718gm9a40DcvoZ2gM9aB7VO3nrrrTI6Ompfnreu23SfptG0hbz0SxoPGkfhrw2m58yZJ2vPVM6mMHhOAKC9dfMlj+ZlgekqaJz5ZVLsHGcqeFtjQiV+ZJVzjrMvnMpuBzhftL0GPlfqH2sogAIogAIoEFfg7Nmzoj/ipcuiXrXAZ4XISc+uM5VFj9Fjee6JPveghzs9dI7nONSdTZ+1/LX4Y/PmzXXD56t/ftwDzDrdRhJg1uk3lBNouqT9M23TsuW9lobg874zO+WqZZ+XLzzzBblt3d1ydvRseOKp6SkZHD0n3YfekouX3Sa//tC13gjo9/3iVtl25miYLm9By0536ORzsmz9+zwAvW3fnTI5OTJjmYeH9sjGtV/2APS+3geAz4x8nqmtrml/Hvi8c+dOJ/A5PsIyhFoepKrA56R0FeCUfbkeAEsdIV0ZTRme28Cy7GyburdZ8FlHIieNcJ5x5HMMNNcLn6tAdwxWazmq0iT8G5CdZjaMiNZ/O5o7d64sXrw44rvDhw+Lvu2XptG0ekxDLw8GR6Gvl19k5LPW0XgaBcDBthhwtkGxvR7ma8HpfGX3v7yq1N21snZ+5cstPUf4BZOW21HdLvs5gvNFOx31weeDsrF7oxxMMNpAX490d/dI30DCznCTHt8tG98ON6SvDPRJT3e3dOd99/RJ5dQD0tdjneftjen5RI4TEU27MekK0/d51552jIgc3GiVJf2KRbxrTtY36zD2oQAKoAAKFKeAto8//elP5c477wzfjz/+uBw5cqThk9QCn+trp/0i1nIe+/loYO1dcskll8z8vnuNDBi2sGvJzOnDPO+SNaeC55FajuvaWWE/u5bIXWsHKp+nd8qSS4J8T62Ruy5ZIjtN2VhaOkWfA+373uh6J8HnoaGhuqCwgcbvuW9c/uynZzPz0P2azhxT61LLmOeeNgSf95/ZJV974TK5etnlMm/9vAh8tk/ee/qAfHDJt8WMgP5Rb3c4+vnkhXPy588vlH/5wNfk4hcXyNFzA/LM/o3ymRfny689dKV84Bc3yW1vPiGHh08kXtDU1JS8dWKr3PnanfKFZX8jn3v6Yrnq+U/L/Nf/Uda+/aKMTkSh8clzB+X+174gt7/yAfnF5uvk9Pn9snLnLfJQzx/L0jc/IX1HHvZGOR86uUyeXv9bHoDeuu/7IXyempqQI8dflDWvz5HVPZ+UN978kgwO9nllOzu0Wzb0XOUB6H3bFibC54mxczJw6A05uvEJObT6x9Lf85Cc6X1JRo7vk6mJ8cRrnJ6akqkzgzK1Y59Mr98m0t0r42/ukdE9/TJ5YSzxmGP9g/LSy33y7Mt90rfvpIxPTErfoTPyyzcOyg9e3CH3r9knr+w6KYMjKeckcCbqavs6a73hJ4WEDLLg8/XXX++NfHYBn72Rj/Pj/zLvwyQfLFfgs1/s+kYrR0Zfehn5+eSF1wmSNX3TTPB51xkRHe1sXoWMfLZGJutIYhvgVq3bULiOaTeqILJO65Ex7cZMI5tn2m90atXlI488IjfddJNMTExEiqhzPevbfmkaTavH1P+KQuVcX+Akgt14HTYliubvbVU4XCt8tqbP8WE2I5+z2o923VdXp1bBbBzWqhHNdrM0lk1aeoB1JkgtPoi1z5V1nO6z00oMPieVI3Wbf2z1dSo4Typ39FwKmn1gvlH6PCBvPgfLDEitRfJAduRaUgvKDhRAARRAgYIVOHbsmAec161bJ8eP+3PjKXRetmyZLFiwwJvOopFT1gKF62qng8LVch77OceDzzboTWIQCo1t+JyWZqZ8ko5L2FZdpgFZc/clsmSXBbFNeRzB5yiUtwB6WF4tU9J2BeNWWcP07kCwfT/LWi8EPp/olc+s3igvZPxY4QsbV8uvrtb3OnngRMqPGnr5mHTZ+ZnR2bWMfNZ4UCsMNumfXrPNYwGXPXEqMw/dr5xA05tja1lqGfPc+4bg88GBnXLTi38r171wmfzwtTtleHQ48aRjkxNy+5td4RzQc7sflMHRC15ahc9/+tz98i9+cp38j2fvkW+s65JfffBa+TcPXiPv/unV8msP/Z38559dIR95+lvy5vEdkfwnpiblsb6n5c9/cYn8Rden5ONLPimfWfpx+eunL5bLnvkLmfvs/5THe++NAGiFz/etnyv//PIHZPFrl8svt1wv93T/ody38vflgdXvk00H7pOpqUk5cOI5Wbr+v8oz639Ttu67NYDPU9J/8mXpfuOv5JWej8r6DXNlYOAtmZ6e8sp1dmiXvLFmrmzouVp2994rE+NRPc4PHpADGxbKvjV3yP7V8+Tg6h/JoVX3ydHVD0j/qsUy2LdGpsaisHxqbEzG+rbLyMrVMrFynUx2vyHTK7f4ALq7V4ZX98lI/4AooLZv+Mn+AVm1ok9eenm7vLH5kKzecFAee7lPFi3fIT9+aYfc/eIOuX35Dnlg/QE5eW7mH1O082Z95uDdyENC2rFZ8Hnjxo3y0EMPSeHw2YJGIRzWbXOskYoSA1feiMvKfoVN4YjHpJHNAQwz+c+Y3sujMmoyTa9W2D4TfL5kqcgrByolLQI+66hnMy1GHOZGRj7rvNBx+FzAyGdvWo6MUcxmRLZXzox0EVAeK1dFsdZau+WWW2TRokW5C6Vp9Zh6X3HYHPmiJnXks9bXoE5aENmHwrGSxEZEe3uD+p1Zp738KyOtdy8x67FYEZxOzx2OfI4VociPtF0zt10uNaq1U6sjiaOjkAMQGx8pHP+cZJq8kDqEsAEQThoFrTA3hM9J6ZKAcVKh7G3xEdp+vj1Jw7o9KG60CUYtxzQIRz7b23U96XpSt9VzHfY1sY4CKIACKDCTAk899ZQ888wzicmWL18uK1asSNyXd2MtULjWdtouQy3nsZ81qkFvwrNKHD57wDfHaOlg9HMIjXOC2MQy6TkD4LyzK/vc0VHSCdczQzl88GyNpvZGbFuf9XirPLaepmy1XrOdx2xYbxg+h8A4HRZv3bZOfnV9r2xVOL1vo/xqIqg+Jg+sr4DpyDEZULsW+Lxnz566gLDC418G8HnuUycy89D92vfW9LVAZ5NWy5jHNw3B57cHdsrNL/2N3LT8b+XHb9wpw2OVaTfiJ3/+wOvy3kf8OaD/57I7Ze+gP5L51IVz8pHnfyIXLfyGB6B1BPT/uugr8q8X2QD6SvlPP7tCPvvirZER0H2n9slnll0rH/r5HLnrzQUyODIo3kjo41vkKy/N9QD0l178tOw53RuKceLc2/KjdXPl5pc+KN9b8d+9EdDzXv0juaf7D+TJNy+Vk2f9Ucz7TzwnT/X8lgegt+z7ngefTw1ulJUbPy3Le/5Eul//K+k/+WoInvV6h4Z2yGtrL5M31s6V3b0/lHELPo9eOCn7tyyUXWv+SXavuTUA0Hd7APrw6h/LkVU+gB7evzkEyVOTEzKye5sMr1wuF1a+4gHocQXQK9+Q6e7NFoDeLiPHo5P8n+kflNdWbAsAtD8CuuvlPg9AP/jSDrlv+Q5vBPT3l++Q9ftPh/rE7xufa28wVDMXrzT4HD9XcT84GAW8NuiKgqIoULLT2XPHeuWMALFoyQ189rdqngZYRdPNpk82fD50VuTO10TOjPhX8N01InOfi15No/BZp8lQoNxU+By9pNRP9tQg9roeEJnuI2Eu6tRMm7zjyiuvTPwhQa27+o6/9EcH9ZgiXj48zhpRHKtPcbAc/ywp/3mgdVihdUZdlkheu2WpptdtwRdNub5gShyh3ZhStGf1tWdF6VZ7p1YBbBSA+lNtGPBaWeoXsKlTV6htAmCbCHONrUKg7E9boT8UGpmuw8sjKI+V1j88Do9NplnLJHBduaYqUByMYA7Bcph1oNPbGdOG6LE2iA6PTVtJG3Wdlp7tKIACKIACtSqgczvrVBsnT55MPFS3/+hHP0rcl3djLVC49na6UopazmM/VySC3jicjcPn2P5ceXjHxEYwx/Ix5crMLz7SOf65Kk//nDOO3A6P89NHAXZ1ubWM0TTTMq06dS1h5LOBxQYc62d7lLMHktfJA/uyRz7rqOfPbDsWzC29V25evVpu3pcy+tmAZvs8ZlvCshb43NvbWxcQNmD41++Zko/MMO2G7td05phal1pGU3+ylg3B5yODO+TWFZd6AHrRm3fIubHoSF/7xJuP75L3PX6NvPeRa7w5oPcOHPMKeGrknPzFCwvlVxZ+Xf6XhdfLf3j8u7LsQK+MT07KhYlReWrP6/J7Xd8KR0A/tXu1d5zOKb1o2y/lj574nHx0yVzZerIyKnpkYlQWbrrXm4JDR0CvP6yQ2O90HRt+W+b3XCl/v/xP5Dsvf1AWv36lHB3aLpqfSaPLvcefk0fX/o482fObsmnfP8nxgbWycsunvDmgV7z+ETnYv0R0Cg77GIXP69Z+Tl5b+3nZ2Xu3BZ+n5MThVbJ9zTdl++p/lLe3LJKRocMeuJ6aGJWBg6+FI6BPbvylTJz3QfL4meMyuGaZnF31vJxb84qMv/12ODXH1IUReafvQAigz2/eL5OjlSk0BvsHZfMr22V9AKC3bj0s58+PydTUtAwMj8hzbxwMR0C/uO2YjE9Er9++LtZr77BXmuLi1poBn5dao5Zt4GwD5nk9a2Wp92Nneq0+iNbjNL0ZTRmObDTAyltGYZgNn8P0nnwKwaJpi1PVbU42fNYzPdkn8tdP+z8q+OdPVJ+7UfisU16cKHHaDXMFZhSzzsucOdWHNYI5Apx1FPZ8Ee/HCK3ye/nPIvh89dVXiwKr+CsNPmtaPabeV6WeJNQRU9fSMo8AYk0Ug826P6zXVibWcZXzW/u9GGD/uGCwz4LPduoy12nLam/LitSs5k5tAHgP9vWIQmMFz1nwOGseZH9qiR7pSZk/2vNh7Hy6TUGvObfC4BBGx+FzMKrY3z8zVM66jmq4bNeSWN49fWL0sVOFeSQA5zSAH8LucPS3nSPrKIACKIACRSugPy6o8Dnrpfs1Xb2vWqBwze20VahazmM/W2SCXgNkI/DZn1Yi1zzR4bzPZhqKaohrl8WsR8rkwWV/pHMV7NXyFQ6fk57V4lNp6HXEp9zQNDo6Op42Kb/Zv23mkc8Ki2Mjkjfujf5IYSYo1hHNNmz2P1dgdDKEdjHyuZEfG1SI/MEHz3mjmj/32OlEuKzbddSzpqsVOpv0eX90sCH4fHRwh9z96qVy64rPycMbb8+Ez70n98j7n7zaA9Cffv5W2Tfow+fTI+fkk8t/LP/qga/Lryz8hizsWxfOB60BQKHwgt6Xgyk4rpS/X/+wB6VNcEhaXhi/ID/a8CNvCg6dA7rnkA2fD8mda6+SG5d/2APQ6w48VQWeNc89x5+Xh1b/rjy69rflxc2flJc2/0U4B/TuQ4urwLMeMzi0Xdb0XOIB6L5td8r4uD8SfGLivBzYsVjeWnODbFvzTRk6tS0CrccvDMqpvuUyfLRXJkb0mClv9PO5fW/JmVW/kIFVT8vo/p3hiGhzzVMjYzK9eXcIoMdPVkaeD/cPSt+KbR6A7n1jn1w4H50bevfhATEjoFds6wc+m8atoKXVFhe22gz4vDssvUJl/1/1I//a7+2vjHxWgGygcwirbQhmrSu4MiMhNRtzrA+wZ5iqIwmKhWVtnZU4fNaSfXGZyH99QGRDf3U5G4XPXo4xeHvCnz7O26XTbszvDc4bm3bDGzXdHS1TZASy2WXlb8/57IFj8eFz0o8DxvMy8NnOIzLVhk7JobB6FsFnndf54YcfNkqFyzT4rGnjc0GHB+VZMSA4rFeVepo0LUZYJzVvc6x9Ht3m1S0/n+q6HhwXjkqOp/MBtl2vw+wj8DlIZ6b/iC+t6UDC4wtYMW0ny+Z0Omrt1CokNeDXh7XV4LXyg386Ujfth/Mqo5INTE60UxwoB/DZQNkQPOvBsbSar0lXNQJbAXANQDcEx4mF9Dd6ANkbCW1rUt+cz+Y0PpSOjjQ3+1iiAAqgAAoUr4AZ+Xz06NHEzHW7wudz584l7s+zsRYoXGs7bZ+/lvPYz2ER0JvWD4/AZ+sZRsGvmXs54djqvH34nAtcx+aP1rwUPptpLbLziINhq8wJ5bT1SFr3riNynQY0V/I15ZsGPgeA2YbFcZAcgONM+Bwf6WznlwSe/fQ6P/SMo6NlUmoZ+WwAb73LR7t3yG8smPAA8zVdx+SJlX0eZNalftb+t+7XdPWeQ49L8m58W0Pw+djQDrm3+7Nyd/el8sSm78v5jJHPW0/skg93XekB6M+9cIvsD+HzsMx56T753xd9Tf7jYzfLmycOVRV8bf/ucA7ov3npB3JmJDrCWueU3nXmgCzb+6p8/40FctkLX4rMAb32UHeYZ//wIbltzdXy9Rc+7AHofWe2hPtscXYee8GbA9oH0P4I6Oo5oCsVXo8dGNouq3o+IWt75sj2bd8P4fPIheOyc/PtsmXt12TXxnkyej75xxPt80+Nj8hgb7ecWvWEnFn9Cxk/fby6nPpDhHsPhXNATx6s5Huuf0D2vbLdA9D7tx6SifHoKO2DRwfDOaBX9QGfbe2LWLcb46LWmwufzVUYaGSPRK7A591L/Kk67BGREcgcQjIRsdd1zHTqvK96Tvt8piytv0yCzweHRJ6pUP3IRbiAz96oZIW49ujiyFn9DzpiOQTTwf44MPY2W/DZZKPnsOFzFUQ2czunjXwOMorPUR2ezzrOnLMVl4899pjccMMNMjo6GileEnzWNJpWj6n/pXVvnixdMi/yRY6XX6x+VZ0jhM+7ZWkIk/0vgaJzukePrHxJZLb7AHpez25ZOz/6hZJJ4S2r4HNKndZyA5+r2/s6OitFtGVF5lFrpzYCdHVe4o190tcTAGYDf81S0uGzB1UN/NX0aZDay2ujbLTmmraBs12ejX3WDw5ax218W2GwAlwfCnvHG/jsjY6uAHI7vxBcp86/7MNtP38LdJsfJAx18GtdHoBdqZ9+WbNGY1fSsoYCKIACKFCkAjrns/64YNLrySefTJ0POil90rZaoHCt7bR9vlrOYz9beGDVGqGcCnUj8HU6JwS+RC6JQOQ6Rj4Hz18VuBvwHxt8zzj6OcqM7Oufad3XJwazvek1dlaeFe2yAJ/D0c3eKGQd7ZwGmdO2e9NkxIH1TPDZAOk4tDbbo8sy4bOC4R8t3yvv/sE7HmiO99N1u+5vBDyXAp+PD+2QRasv8QD0ks23yfmMOZ9Xvr1ePtb1dx6A/uLyW+Xtsz5MVZD8Ny/dJ/928Vflvy29XXYOVkPWdcf2hnNAX/rSPXI6gM/DYxfk/m3L5I+7rpH3PfG33hQc//2pS705oD/SVfkRwlVvrwwrp8Ln7636klz7/Efk6y/8qew/kzw/yY5jL8qPgx8hNCOgzRzQz73+R3JiYH2Ypwkag0PbpHvdxbK655PSu/17Fnw+Kts3/bNsXPtl2bnpDhnJAZ8nxy/I6a0vyYnVj3oAemLwVNX59LyTBw6Fc0C/c6Ci3cixATn86jYPQPfvOCKTk5OR4w8dHRQzB3TP9n6ZYNqNiD7mnta7tBvjotabBZ+96TDMyEQLUlWuqwKfzbYQJHsAzIJMMSAWpvP+5V/T+SAradRm1bbEspgStMYyCT5nlcwFfNbzhVNhZEDcyI8RBoWsFz7nHvncLYmNoN0oLtE0GeXO0rPsfTo332WXXSa33npr5NRJ8FnTaNq0ef4iGWR98EYr+3UsUldNnY0srbroHRf7bwZr25zEOdf9L5+qRkR79VrzsvKPl9nA5z1LZeme6BdKlTgQfCkFfC60Paq3HSv6uHo7tWYEtIg9yrfbH00cQtc0+Kzbo6N5K6OGYyYN8wq262cPBoST9ZMAACAASURBVEeP9/ZaaX3Qa8FmTWCAc2Q9B+Q15wzmdw5KUrWoXENw3XrcxoPeNCFVINsD7zHtZoDcYR4zlKOqYGxAARRAARSoSYFjx47JggUL5JVXXpHjx/1/Vzxy5Ijojw3qqOd169bVlF88cS1QuN52Ws9Zy3ns5wsPrkYAcQKotUc+e6A3mEbD3p7wJX113vngs10+s14Fn+1zR+CzjkqOweKEspl8s5aJ4HnaB++VHxSMT8HBtBv9Zo5lA5d1juf4lBuaxuw36WPLuuZ8lnyQuhb43Oi0Gwte2hMBz//nvZPyocXDokvT51YArenqBdClTLtxcmiHPLLmMx6Afuat2+RCCnyenJqUJ7Z3ySeXXiEf67pC/mndQjk7dt7rXCl8/uIr98qvP3St/JdHb5TXjx+o6nStOrpH/rdF18qvPnitfOZFHz6PT03KXRuXym88/EV576OXy2899nn50qu3yRM7X5C3TuyQO968T/78Fz6AXvn2qjDPo8OH5DurrpWrl33UGwGtc0AnVfq+/uVyT/cfyn0BgH5l+3Wy7dBibw5oHQH95s4bZHxiKHLswFCvvNLzUQ9Ab93+XRkLpt24cOGYbNv8XdnQc7Vs2/BPcuHckchxSefXuaDP9K2Q/lWLPQA9dqa/+pipKRnfu18m9EcIu9+Q6bf9qUw0v7FjA3Kqe5scfmWbnNxxVKZi8Pno0UFZ9nKf/Pzl7fI68Lla2zobCXMv4w1/EZ+bBZ/tskfhlgFN6fBZoVLkX/Bj8Nn713/9N38FU6nAKQqq7PK0+npLwGcdqWxGHgfLKjicMJpZta0XPsfPF362ILKZdsO+h7N95LNei/6IoH5RsnjxYpmYmLAvz1vXbbpP02jaxl4+DA6/mLG/kInXtdiJvLoZTl9jvvQxddr8Z4ICZeuHR+P1NITVQZr4Z/ucZl+snkdiil1++9iC1k18ZpnQsWuwzcujab2dWg+0Kizt0VHJtYx8DoBrFUBVYGvN32z8ZQFls8lf+um77RHTYdoB6dvYJwMBGLfnfA5HEieC6OgZ/E8VgK3XbI+6jqeuwGd/XmqFxeH5gulCso6387PzsrezjgIogAIoUI4Cg4ODsmLFCg9CK3DW9wsvvOCB50YBdC1QuN52WlWq5TyJzwwRgKvPKTkgrgLgmUZNR8B2LfA5ev4IfA7OGwJgu+z2egPPVv70HjqHc/yZTctlbffO589JHdcicY7qqvzi+c+OzzPP+awjjX0QnDoVxgzwOTJ/s/cjhRvlhRig7pfo3NI+0K7MNR2C8NhxtcDnRn5w8C9+NhRygJt+eVieXRv98UL9rNtNX13T1wOgS/nBwdNDfdK17tPyyNrPyIu9t8iFALbGA0r/2SPy7ZXfls89/UUPQC/Z9VI4z/LAyLBc9eq98huPXCu//tBX5L5tr8bmfJ6WeW91y7984GsegP5Gz5MyMjEu+wePy8eevUX+08+ukP/W9XVZ178tzHNkYkzu2vBAOAK6+6D/I4VariNnD8s/rLxW5j77P70R0MeGq6f50HTb+pfLvFf+SO7p/gNZ9tZX5ezIURkZH5I1O24UMwL60MnnItDyzNBWWbHuz+SVdR+VLdtvlrFxH06Pjw/Lzu13yxtr58qGnqtk4OTmyHGTEyNyfPcyOXVgpYycPerNJ60/Zjiwb60cWfWAHFu1WIb3b66e83l0REY3b5SRlatlfOU6mTo5EOY7eWxAznb3yqlXt8mZHUeq4POx/kF56eU+efblPtmg8HmSHxyM+7aRzy4eVcqHzzPNu2zvtwBVwhQa2YApZTRlKOLsh886ojnvW4F1Q68AJL9pRhVbwNfka8+zbH4kMD7lhqa14bM3fUcMXocjqh8UORFkngiQY3lp0kz4HEwRYhrCKlhuLqRFlzt27JC5c+fKTTfdJIsWLfIgs4JmXddtuk/TNPby601lHucYiI6MeLbqagzwmrpZNZrZFC6AxvN6DobT3/jgOvbFkknvLQ3M9n941PyYofkiKjx+jtkfHGwAddYI6sh5avvQSEzn2MY7I7V2avus6S9S53wOIXAwAtiyhDethZluw9rurepxsRHR9jzO9pQYNtQNswnPa7ZUwLE36tkG1TZ8jkBqc6wufcBtn8srQxU4948xwPhgn4JvPVZHZxtIbk/LoeuVqT7sM5p1k5f5zBIFUAAFUKB5CuiPC54/fz4sgI58bgRA1wKFa22nw0I2CJ/9Eb46mnlABk4FzxundH2N3KVwOTblRvhMZo8+ToCqXr4NwWcDeX1orTA3eTSyvz+EvwnnTL2GtHLbgNlOo5qk6eGlY+SzDXw9gLw6CRonjXyOgWSZFB39rPD6V60fL0wGziZd8XM+79lT34jkxa/s8qDy790/IsvXvZUJlXW/ptO+tx5XK4DWMob10vZrbL2hOZ/PnO2TZ9Z/Un6x/tOyovcWGYnB54nJcdl3eof8+I075Kpln5cvPPMFuan7O3L4bGUU7+DosFzbfY+895FrPAD9h7/4jvx8z5tyYXxcxicn5ekDvfJrj31P/sVPrvMA9E93rPMubPfgMfnw0/8sv/bQ38mly++U4+cr4HVg5Kxct/J2MVNwvBqDz9/q/qpc9sxfeCOgdRqOJKG2Hl0ut7/yAQ9Av7rzdpmYHPHSHR14XZa88WfeCOg1278oF8YqU12cGXpLlvd80APQm7f/Qwif9QcEjxx5Tl5b+3l5Y81c2fHW92X47H7vhwWnJsfkTP8bsqPne7JrzT/J7jW3yrnT/s27cHq/HF77gBxd/YAc63lEzh/aLlMT/g8HTl44Jxf6NsvwyuVyYeWrMrZlq0yNVn5U8J3+ARnv7vUA9PDO6pHPJ/sHZNWKPnnp5e2ytY9pN5I80Mg2uzEual3hczjCMQ0sBds1bWOv6tHM6fnVkjY9l3bdozC5lne76tBp1zU8PCyPPPKI3HLLLXLllVd6b13XbbqPV/kKNBLTObZ8+GwconC0Ap9jI59Nosicz8GI5zTwbI5RKGyPgK4Cyn5CG0SHILcqrYHP/tKGyJEpOLzfKuyxfoAwKGschAdl9MCwXcbYdj2PXT4z2lm3mXVzuWnLir5pKdiOAiiAAijQTAUaAdAtDZ9ngssBuDI/8heONDZAq86Rz7lGBIdg24DnnbLm7ku8Hx2s7ZkwANOZwNh+xvLhcQiyrZHdBn5nlx/4bMPnVl2vZeSzTsNTKwzW9P/fT0bk3/9wuqZjNb0eV+v5tIx56kVD8Hno7HZ5+Y1PyLPrPxmOgDZzQN/96qVy64rPyc0v/Y3ctPxv5WsvXCbXvXi1rD+0LhyhrAUcGh2Wr6+8R973+DXy3ke+FI6A1jmg//WDX5V/9cDX5Vd+8g25aOE35H88u0AOD/uQ+eDZU/LRZXfKu396tbznsa/Kk7vXyOjEuAyOnpMfbn4qMgf0s3teDsU4fPaI3PDqdfK5py/2RkCnwectR1+S76347x6AftmCzxOTY/LGvrvl0bW/7Y2A3nP0EQ8i67WcHtoiL677gCzv+RPZtP1bFnyelgsXjsrWt74tr629zB8BvfYqbw5o/RHCrWtukG1rvil9a/5RjvY9KRNj57zyTk6Myek93XJ49Y+9EdBmCg7vRwhXdcnAyqfl7Krn5dyaV2Ti5MnwGr0b339GpLvXA9AjO6tHPp/pH5TXVmzzAPT2vqOMfDaNWEHLZj6gcG4UQAEUQIFqBfI8FJHG7gAVu17viKoKHFVQu1H6+no8aNztjQq2RvvacxunjBiucoU3AjqYsiJYD+c7nmle5AjcNvC5cgYbCkdgtJckGzpXcvHXTF4mH/2s6x6cDsth8oyPfNYfazwYzTJyrQlzWkdT8wkFUAAFUKDJChgArZCnllfLwucAPFcB5bS+uJc+NpdyCIiTn1eqRz5Py3QeYO0B3+Bcel5rJLMB4UlwuLItVs60a2J7lF/VoEe+aTeiP/LXSiC6Fvg8NFT7VBjXLen3RjH/4MV9NYFkTa+jn/X4WgC0ljFPH6oh+Hx2eLusfvPjHoD2RkDrFBzBHND3dn9W7u5WAH2pB6D/6ZVrZO3BFaLzP9sFGxo9Kzet/oG8/8mrPAD9ndcelQ8u+bY3B/S/+2kFQP/Gk7fJyqN7w2OnpqflJ9tXyX94+OsegNYR0P/5Z1eEc0D/5bM3yu8FP0L4k61PhOdV+HzdK1+Xzyz9uNzU/VXROaDt8pj1zUdelu+8/EH53ssfkBd33iHjwchn3X/m/H55euMceXTt78jyLZ+Rs+d1FLPC583y3Lo/8AD0hm03yPj4YCTvwcE+2bTx+nAEtM4BrT9CqAD6rTU3yP4tC+TCcPRbg8mx83Jqx0tyaNV93gjoKID+hQyufV7Gj+sx0WkzpvpPyTsrN3sAemLnEZmOzfk82D8om1/ZLutXbJNdff0yybQbkXtlfFDvspaHAtKiAAqgAAq4V6DeeM5xyZ26WnWpFz67d0ZwhqrRzBlnriVtRjbsQgEUQAEUQIG8CuiUHLW+aoHPe/fuldHR0VpP4R2jx9b6XED6Yp6vOlHHToLPen9r/dHBv3p4UH7zx2M1AWQDm/U4Pd58nmmZ98cG9Toags/nhrfLGxsvltUbPi4vJYyAvn/N5dK16Xuy7sCzMnghNjI3+Gbj7OhZ+Yc1P5AP/fxKef+TV8vmk3tk15kjcmPPw/Kex26Q3/35d+Sbry2V/WdPVwU0b1qO/ZvlEy/8wAPQ733i6/L1tYvk9WM75NDZE/L55f/sjYC+4uVvy5Fhf3qMQ0NH5NoV35BPLPmE3PDKdd4c0EkVduPRFfL3y//EA9DP990Zgc8KenuPPC4Prf5dbwT01oP3yOTUhJwa2iTL1r9Pnlv3h/Lm9m/IWAw+63kUSB8+/LRs3fxtbwT0pte+Jrt675GTR1fLxLg/4jlenqmpSRkZOCSnd70qx157wpsD+szG5+X8/q2i02/E0+vnyWMnZHLlGzLdvVneSYDPw/2D0rdimweg9/UdBT7X8E1bkt7xbTW32hyAAiiAAijgVIF4nOZzuZ2elofPTt1H5iiAAiiAAihQvgK1wGf94UOFyHpMLW89Ro/luarc56pO1vuOEwfk7XcmpJVGM+cti5Zby1/L/Ttw4EBuGKywuFaAbANmA67XvL451zm1bHmvpSH4nPckWekUPv9zz93ysa4r5MNdV8qWE/kmq87Kk30EvmZ7oPxHC86IAiiAAiiQpUCz24VOPz/wOcud7EMBFEABFECB4hWoBT53+nMK1z97GNJTA8el+8LgrITPWm4tfy1+098LsgHxTOsfWjwsX+o6VtMxJk89To/P+8ODWra819J0+Dw8OizfX3e3fHLpFfKxrr+T3pPA57w3j3StGyCLf3QgRxRAARRAgUYUoM1sbpsJfG7EvRyLAiiAAiiAArUrAHxu7rMPz55u9O8fH/VGDyvInS0joLWcWl4d9azlr9Ubu3fvrgsmG6jsYqllquU6mg+fx87K3evnyaVPf9ED0NtO1nYBtVwsad1UfnSt1rX2RwOOQAEUQAEUcKkAbVV1W1WmJsBnl+4mbxRAARRAARSoVgD43NxnnzKfszrtXApwdQSxwlydA7rV31pOLW894Fnvba2jn13A5nietYx61mtoOnw+NzYs97x2l1z+zBfkc09/UfpOAZ87LXC04/VWN/1sQQEUQAEUaKYC7djWzKZrAj430/2cGwVQAAVQoBMVAD4Dn2fTsyJlzfar/uhoHAA367OWpdb71RLweeEbd8pVyz4vX3jmC7ID+FzzTaz1ppM+u1IXoU8nPtxwzSiAAijQygoUEdvJo/720/xrXit7hLKhAAqgAAqgQLsooM8spu3l+aX+5xe0Q7tW8kBfX1/TAbSWoR5Nmg6f6yk0xxAAWt0D7fLQwnWgAAqgQLso0OrtRruX78iRIzI4ONguduI6UAAFUAAFUKClFdA2V9vedn++4PpgQ53kgfPnz8vmzZubBqD13FqGejQHPk9TWesxDsdk+6aln0QoHAqgAAp0oAK0W9ntlmt9RkZGvBFY2hnWc/FCARRAARRAARQoXgFtY7Wt1VHP2va6bt/Jv7nPV+jfefoPDQ01DT7ruev1HPAZ+Fy3eeo1XSccV/xjBDmiAAqgAAo0okAntD2tfo3aCdZRWNoh1nkoeaMBHsADeAAP4IFiPaBtrLa1gOfOg5Kt/hxI+YrzpELgMkdA67kaAc9674HPwGfgswMPNAJIOBYFUAAFUKB4BXjgLe6BFy3REg/gATyAB/AAHsADeAAPNM8DOv1FGXNA6znqnWrD9gfw2QF4tAVmvXmVsZnaF49NyBEFUAAFUKARBZrZJnDuznwW4L5z3/EAHsADeAAP4AE8gAdceuDQoUPOpuHQvIsqO/AZ+FyYmYoyZTvk0wgg4VgUQAEUQIHiFWiHtoVroPOCB/AAHsADeAAP4AE8gAfwgO2B4eFhb1q7DRs2FAKidfoezdM+R6PrwGfgc6GGatSQ7XJ88diEHFEABVAABRpRoF3aF66DzgYewAN4AA/gATyAB/AAHsADcQ8oMD5w4EBd80HrvM56bNHQ2ZQR+Ax8Bj478EAjgIRjUQAFUAAFilfAPPiw5EEdD+ABPIAH8AAewAN4AA/ggXb2gP5AoP746J49e6S3tzcCpBU06zbdp2ka/THBPDoCnx2AxzzCk6a9A13x2IQcUQAFUAAFGlGAdre9213uL/cXD+ABPIAH8AAewAN4AA+0pgeAz8BnRj478EAjgIRjUQAFUAAFileAB9HWfBDlvnBf8AAewAN4AA/gATyAB/BAe3sA+OwAPFJp2rvS5Lm/xWMTckQBFEABFGhEgTyxmzS033gAD+ABPIAH8AAewAN4AA/ggWI9AHwGPjPy2YEHGgEkHIsCKIACKFC8AjxAFvsAiZ7oiQfwAB7AA3gAD+ABPIAH8EAeDwCfHYDHPMKTpr0raPHYhBxRAAVQAAUaUYB2t73bXe4v9xcP4AE8gAfwAB7AA3gAD7SmB4DPwGdGPjvwQCOAhGNRAAVQAAWKV4AH0dZ8EOW+cF/wAB7AA3gAD+ABPIAH8EB7ewD47AA8Umnau9Lkub/FYxNyRAEUQAEUaESBPLGbNLTfeAAP4AE8gAfwAB7AA3gAD+CBYj0AfAY+M/LZgQcaASQciwIogAIoULwCPEAW+wCJnuiJB/AAHsADeAAP4AE8gAfwQB4PAJ8dgMc8wpOmvSto8diEHFEABVAABRpRgHa3vdtd7i/3Fw/gATyAB/AAHsADeAAPtKYHgM/AZ0Y+O/BAI4CEY5unwLvmi/DuHA2a5zTO3AwFeBBtzQdR7gv3BQ/gATyAB/AAHsADeAAPtLcHgM8OwCOVpr0rTZ77e/z4ceE9+zQAPHcOeNZ7TR2dfXW0kXuWJ3aThvYbD+ABPIAH8AAewAN4AA/gATxQrAcuOnr0qBw6dEgOHjwoBw4ckP379/NGg473wFtbtwtvNMADeAAP4AE8gAfwAB7AA3gAD+ABPIAH8AAewAN1eKB3u7zVu10uOnHihBw7dkz6+/tFQfSRI0d4o0HHe6Bv5x7hjQZ4AA/gATyAB/AAHsADeAAP4AE8gAfwAB7AA3igdg/s2LlH9H3RwMCAnDlzRk6fPi2nTp3y3idPnhTeaNDJHti7/23hjQZ4AA/gATyAB/AAHsADeAAP4AE8gAfwAB7AA3igPg/s2/+2XHTu3DkZHh6Ws2fPeu+hoSHhjQad7oFDR44JbzTAA3gAD+ABPIAH8AAewAN4AA/gATyAB/AAHsAD9XvgogODo7J/cET2D/jvfQMXhDcadKoH/s0dF8S8j504LbzRAA/gATyAB/AAHsADeAAP4AE8gAfwAB7AA3gAD9TngYsODU/I2+Z9dlze5o0GHeyBf3PXuJj3ydODwhsN8AAewAN4AA/gATyAB/AAHsADeAAP4AE8gAfwQH0euOjI+Sk5zBsN8IDngXfNmxLzPjM4LLzRAA/gATyAB/AAHsADeAAP4AE8gAfwAB7AA3gAD9TngYuOjrwj3vvCtBy9MC1HeKNBB3vgXXdPi3kPDJ0T3miAB/AAHsADeAAP4AE8gAfwAB7AA3gAD+ABPIAH6vNABT4bCM3Sh/Ho0JE6vGv+O2Leg2fPC280wAN4AA/gATyAB/AAHsADeAAP4AE8gAfwAB7AA/V54KL+URHeaIAHfA+8a76IeQ8NXxDeaIAH8AAewAN4AA/gATyAB/AAHsADeAAP4AE8gAfq8wDwGfjOlw+WBwx41iVBpb6ggm7ohgfwAB7AA3gAD+ABPIAH8AAewAN4AA/gATygHgA+W+CR0b+MAAc+ExhpHPEAHsADeAAP4AE8gAfwAB7AA3gAD+ABPIAHivEA8Bn4zMhnywPA52ICCwEaHfEAHsADeAAP4AE8gAfwAB7AA3gAD+ABPIAHgM8WeGTkMyOfgc8ERRpGPIAH8AAewAN4AA/gATyAB/AAHsADeAAP4IFiPAB8Bj4z8tnyAPC5mMBCgEZHPIAH8AAewAN4AA/gATyAB/AAHsADeAAP4AHgswUeGfnMyGfgM0GRhhEP4AE8gAfwAB7AA3gAD+ABPIAH8AAewAN4oBgPAJ+Bz4x8tjxQFHyenp4W3miAB/AAHsADeAAP4AE8gAfwAB7AA3gAD+ABPNCuHsgD6EuFzx97SuT5A4yuZYR163oA+EyD0K4NAteFt/EAHsADeAAP4AE8gAfwAB7AA3gAD+CBIj3QcvD5Dx4S+cOfidz2mjv4uGiRiA0QE9cXifRao12TYHDvCpF3dWWX87vzc5zLSvOidc4Xu0Q+uyLI/5DIZ6108TLbxyWVlW3Z96kWfWzt81SgtDRFVmTyomHAA3gAD+ABPIAH8AAewAN4AA/gATyAB/AAHmg1D6RxMXt7aSOf1/aL/N8L/ZHPCvheOVQcMLThosLn727KyHuTyLsKhM82GFYYnXZu3WenjcBnC0rb18J6xn10pBnwmUDeaoGc8uBJPIAH8AAewAN4AA/gATyAB/AAHsADeKAVPWBD5rT10uDzt9eIXP6cDxMvWybyvfVuwGI9I5+TQHDSyOf4Nhsoax42uAzXA9Bt0ialSwPWwGc3HsnSNbxv80XSKk2e7a0YECgTDRUewAN4AA/gATyAB/AAHsADeAAP4AE8gAfwQFEeyMPISoHPCp51yg0d/azg797NIn/yqL/+188WCxjrHfmscDicBmNUREGz/blfR0zHRi8boOylXRRLPyqi+w1YNmkN+NRyRvJ3NJLXnI9lPp8BnwnARQVg8sFLeAAP4AE8gAfwAB7AA3gAD+ABPIAH8EA7e6Al4PO314p89Kko+HvzpMj/s1DklvUin1gionC6UTiaa8RzfF7l2PQbNiyOwOdgTuZFsalCPKCsUDqYGzocGR2AahsuR+BzkJ/ZnzQa2oagJv9GNeL4mX1m656nAqWlaefAwrXRcOIBPIAH8AAewAN4AA/gATyAB/AAHsADeAAPpHExe7vTkc8bTor8h3tFdBkHnwqkdTT068f9EcW9A9Vp4sfM+Dk+n3P880yjixUKB0DaA8IBVFZwHAfPWpYIUA5GSxt4acCyKbOd1oPUBoTHAHh/AKbt+aFNHiwL8MgMHjD3T5d2Ral1nQBMAMYDeAAP4AE8gAfwAB7AA3gAD+ABPIAH8AAeaGcP5OFlTuHzU7uqRz0nAdQPPy6yZE8BYDEYcWwDRP1xwe8uSpiPOQ59Y1BSYfF3u6I/Ehgvu0ljzmcDZxsw63YbPpvjdLtCbp2aQ5fe8QY+B8sk6B0vB58L8E5w/829BD7TOLRz48C14W88gAfwAB7AA3gAD+ABPIAH8AAewAN4oFEPNB0+63QaeabUyJtuRsgaH+lsPlsjmjWPyJQaMehs9ntTXWzKnpfZBsp6nH5WaGnmebbLa9Kac4ewWc9vgHNs3R59befFenGwOa4l8JnA22jg5Xg8hAfwAB7AA3gAD+ABPIAH8AAewAN4AA90ggeaDp91NLOOao4Dvvhn1yOfe0cTRhYnQGevXMHoaTPthQLgtNHHBijHr8fMP20fZ9Jqfpq3DZ8jkDkFRMfPweeZfVWPRsBnGodOaBy4RnyOB/AAHsADeAAP4AE8gAfwAB7AA3gADzTqgabDZ53HWWGezuucBgLLnPPZQOGkkclaPjNVhgHPpsx6XNIxBiib4zxwGcwTbY41S5PWfA7hc3x6DRs+xyC1OZZlup8a1Qb4TOBtNPByPB7CA3gAD+ABPIAH8AAewAN4AA/gATyABzrBA02HzwoCP79M5Orl6bBQ92maRqFhBACbH/Ozli/a80HH53sOgK/OD62jpJPK4oHr2P44UNbj4uUwo5/jaQ18jox6jk274ZUjNhI7qWxsS75n9egCfKZx6ITGgWvE53gAD+ABPIAH8AAewAN4AA/gATyAB/BAox5oCfisAPCPHxX5rUUi8970R0HraGdd1226rx5ImOuYYM5n7wcHbXBsYLNOgdHlj86Oj3ZOzN86TvcrULZh5Uzr9jkMfDbniUDrlNHTJi1Ld56x72GeCpSWptHKy/E0AHgAD+ABPIAH8AAewAN4AA/gATyAB/AAHsADreyBNC5mb7+oLJD5k7dE/voZkffe7791XbeVdX4X54mPZs46Ry1ps/Jhn1vPAJ8J6q0c1Ckb/sQDeAAP4AE8gAfwAB7AA3gAD+ABPIAHWsUDNmROWy8NPgNN3UJT9C1GX+AzAbxVAjjlwIt4AA/gATyAB/AAHsADeAAP4AE8gAfwQCt7IA0429uBzylzPANzi4G5s01H4DNBvZWDOmXDn3gAD+ABPIAH8AAewAN4AA/gATyAB/BAq3jAhsxp68Bn4POsnvqkaLgNfCaAt0oApxx4EQ/gATyAB/AAHsADeAAP4AE8gAfwAB5oZQ+kAWd7O/AZ+Ax8tjwAfCaot3JQp2z4Ew/gATyAB/AAHsADeAAP4AE8gAfwXlgOlwAAIABJREFUAB5oFQ/YkDltHfhsgceiR9GS3+ybugP4TABvlQBOOfAiHsADeAAP4AE8gAfwAB7AA3gAD+ABPNDKHkgDzvZ24DPwmZHPlgeAzwT1Vg7qlA1/4gE8gAfwAB7AA3gAD+ABPIAH8AAewAOt4gEbMqetA58t8MhI5dk3UrnoewZ8JoC3SgCnHHgRD+ABPIAH8AAewAN4AA/gATyAB/AAHmhlD6QBZ3s78Bn4zMhnywPAZ4J6Kwd1yoY/8QAewAN4AA/gATyAB/AAHsADeAAP4IFW8YANmdPWgc8WeCx6FC35zb6R1MBnAnirBHDKgRfxAB7AA3gAD+ABPIAH8AAewAN4AA/ggVb2QBpwtrcDn4HPjHy2PDCb4PPExIScP39ehoaGeKMBHijJA1rntO61cuPfTmVTrfsHzsuZwbN4vCSP06Z0dpuqdU3rHHGuvE4uca6z6xwxt/z7T5wrL76ZZ1KNc/Rby/c68aWzNS+z32pD5rR14LMFHhmpPPtGKhd9z2YLfNYGXBuTsbExmZqaAoRNl/8QZR6mWHaO9lrXtM5p3QPMuL/vqrF2EK97cVz+473viB2fWRf0mI8GLuqB1jWtc1r3iHPEORceI09iV7M9QJxzH9vs/hH91nL1trVnvXO1L7vfmgac7e3AZ+AzI58tD9gPQ3ZFqXXddaDXb7EUgrk+D/l3boPFvU+/91r3tA6iUbpGRWijoy8VgtlxmXWgBR4oxwNa97QOFlGXySM9VhLnyvEzcQOdkzxAnEuPTUXGbfqt5ehc5D0jr/a5Z2X1W/PwMuCzBR6LHkVLfrNvJLX9YJKnAqWlcR2wdeQlI57bp1Fw7RfyL9YrWve0DqJrsbrG9dSRl4x4BhjY7TLr5flB657WwXi95HOxcY84V56niR9oHfcAca7YeJbWPtBvLUfnNP3Z3tn6l9VvTeNi9vaLhBcKoECVAnYlqWfddZAHfHV2I+LaX+Q/s7+ogzNr1KiPVON4R5HPwAM8UJ4HiHPEOepbefUNrZujNXGunDjX6DMhx7u/T2jcvhqXEefyMDPgcxV2ZAMKiOSpPFlpXAfvMgKI62sg//Zt4Drh3lIH3ftXNaYz3pzOOLqju3qAOEecIxYQC9rdA8S5cuJcJ/QNuEb3XkLj+jQuI85lsTGzD/gMaUWBBAVMBal36TowlhFAXF8D+dfXeKBba+hGHXR/H1Tjdu/0cn2AnVb2AHGOONfK/qRsxM8iPECcKyfO0X9xrzMao3GaB8qIc3m4GfA5ATyyCQXyVJ6sNGkVv6jtZQSQospKPjSE7egB6qB7X6vGRXQsyQNAgQfq8wBxjjhH3amv7qDb7NGNOFdOnGvHvgDX5N47aFyMxmXEuSw2ZvYBn+GsKJCggKkg9S5dB8oyAojrayD/YhoTdGyOjtRB97qrxnTgZ08HnnvVfveKOEeco163X73mnkbvKXGunDhHf8W9zmiMxmkeKCPO5eFmwOcE8MgmFMhTebLSpFX8oraXEUCKKiv50BC2oweog+59rRrTSY52ktEDPcr0AHGOOFem3zgX8a0ZHiDOlRPn2rEvwDW59w4aF6NxGXEui42ZfcBnOCsKJChgKki9S9eBsowA4voayL+YxgQdm6MjddC97qpxMzqinBMAggd8DxDniHPUBeJhu3uAOFdOnKO/4l5nNEbjNA+UEefycDPgcwJ4ZBMK5Kk8WWnSKn5R28sIIEWVlXxoCNvRA9RB975Wjdu908v1AXZa2QPEOeJcK/uTshE/i/AAca6cONeOfQGuyb130LgYjcuIc1lszOwDPsNZUSBBAVNB6l26DpRlBBDX10D+xTQm6NgcHamD7nVXjYvoWJIHgAIP1OcB4hxxjrpTX91Bt9mjG3GunDhHf8W9zmiMxmkeKCPO5eFmwOcE8MgmFMhTebLSpFX8oraXEUCKKiv50BC2oweog+59rRrTgZ89HXjuVfvdK+IccY563X71mnsavafEuXLiXDv2Bbgm995B42I0LiPOZbExsw/4DGdFgQQFTAWpd+k6UJYRQFxfA/kX05igY3N0pA661101ppMc7SSjB3qU6QHiHHGuTL9xLuJbMzxAnCsnztFfca8zGqNxmgfKiHN5uBnwOQE8sgkF8lSerDRpFb+o7WUEkKLKSj40hO3oAeqge1+rxs3oiHJOAAge8D1AnCPOUReIh+3uAeJcOXGuHfsCXJN776BxMRqXEeey2JjZB3yGs6JAggKmgtS7dB0oywggrq+h0fxPLLtR3vP+i633jdK1ZZlcFdlm779Ybt9iBfDjmnahbJreIrdnHPOeBVuk0bJyvKX7dHusUwfd30fVuN07vY1e36MDIkOHa4Aj20VkoIb080nb6D2azccT54hzpfl3lcjQmMjNKTHHxLrdIrJ7ezQu6bakuHbz4eTtpV1TyrVw/uj9a7YexLly4hx9IdX5mHRdH+2PVvdnL5akvuemBRfLVcuO+X1Srw8b7eNW+sTat3V/T7mfs0vjMuJcHm4GfE4Aj2xCgTyVJyuN64BcRgBxfQ1F5a+NcQQqmwY3hMvJjYPX2HtgWeFzckNdSZOcR1HXQD6zT1/qoPt7pho3u1Pa7PN78CSlSV6zSkShy6M1Ao4keNPs6+T8rQVjzP0gzhHnjBecL3PCZy2HxjCNf7q+ZiwlQI6JDCXtygDczq+xxlhNecqJi8S5cuIcfR3VOQU+2wOdtiycGT6bvi5LBojl9EAZcS6LjZl9wOekBxO2dbwCpoLUu3TdwJYRQFxfQ1H5p8HnbHBsN/7A56LuRSflQx0sp7NC59vqfOuoZQuc6EjAtJcC6SxwnXgcI6I7/suOeH0jzhHn4p5w9tmGz7qeGKSsjWMim4IY6H0Bp/ExgNIGSHsjpK3tzsoOVJ7VsZM4V06c66Q+QtK1an+1MjpZ1/2BT5ERzQoSY/C5+riUQVc5IWRS2djmvg40W+My4lwebgZ8tp5jWEUBo0CeypOVxnWAKSOAuL6GovJPhs/+VBqJI6JNw379MjnhNdTA56LuRSflQx10/6CmGgMLUuBzAFTsfz+P/4t51edgpCCaWpoCjTLrGHGOOFdGvDCw2DyD7z7sw2f7vzo0nlVNMZQHUptMg6UdM8u4Ns7R+vGWOFdOnOukPkL6tdqDn6Zl2vsv3Rul67h1D+wpNcIR0f5x4bQbgGZGPNfogTLiXBYbM/uAz7GHEj6igCpgKki9y/RGx2pcagwadp5lBBD7fK28ngif9VvjlKk0zL88vScCn+PfRlufw4a/mHvXylpStvz3mDqYX6t6faUa03H3/608HMEXjHxWWLM7Nt+zmRPVaBaHz/qv6lXwRiE2I57xWQqEJ84R50w8cb7MGvk84P8nR1X8so9J8bBdbi9uxuaLtvez3vqg2MU9Is6VE+fqfRZsr+Ms+JwEntPYQACkDXxOGg0dGVVN3xU4HfNSGXEuDzcDPsNaUSBBgTyVJyuN64ayjADi+hoazb/6BxrMN8f+qGevEV6wUG4PIbP/cOUdd/2NclW43R75bD0UTE9L9tQd7h/WGtWI493dI+qgO22Nb1VjFx3N2ZZnCEyC0c6myXpUP1vTcITpAghjw2fdp+BGl2mvKrCTA+bMNi0pb21wiThHnCutztgg2V4PviCz45k35ZB+aRakW5MxBZEX7+wv7YDPtKuxto04V06cM892nb20+6hb/H5myo/e2/+9G+nzhv3X4L55YDr5t4s6W2v3vp5N+pYR57LYmNkHfE7rhbG9oxUwFaTepetgVEYAcX0NReUfH/nsw+VlsmnZjf4PNlTNnbVQNmlDHW+8vW8Io/C5qDKST/s9AFAH3d9T1bg08BHrjLbSeUOoHIPNWsbwh7cUwsR+fNDAGjM3dCJcDsBOK10vZakNELvUizhHnHPpr0jeNnC2102MMvEviHXmBwc1j/h/fUTyNce1cIyPlJdylt7uE+fKiXOd3heyRytXwLI9AMrcB91mBlTpNj/N7QsuFh35bPq9uvRGQhv47C3t40x+LDvde3r9ZcS5PNwM+NzRiJWLT1MgT+XJSuM6yJURQOLX8M3vzY/9UII1NcX7L5ZPXP61pvyLi2mEvfJaDa89ajlsoM2/oBj47E3PEb2OyL8tmW+jE0E1jXncI530uRl1sJP01WtVjZvZKf/KSyKHzopcu7y5MDALPtuAOQ6Xdd+QjnQeE3nUzJcaBzcG7AA8muq1Zvo869zEOfftfDPinMa2rJfuz/KFk31JwFnjkolRwf7dwX9x2GUwX7ClXpP1HyL2caw34T63YFtDnCsnzrXCM+ytP7hfPn/t38vQ2eGm9FnN1I8V+DztwWQznYZqFO+zan/WQOcwnQHO2q+11vXY9zDlRpPurft61EgdKiPOZbExsw/4nPqkwo5OVsBUkHqXjQSHPMeWEUDscix5bkUmeDbA9keLHis94Ffgs/+vTKZBt+Gz/62x9evABj4bGB2OetbpOC6Wq65fGP3xh0i61m5c7PvGurt7VXYd7MR7qRo3Aw787oMiPYejLaB+1u3NKE8WfNby6Ohnfdk/zqXbFciYH9fyQPThoPwBgPbSG7DTgkCgGVpzzqjHiXPu2hAT05sV5y57VuTO16rfur0p9SCISxrL9Esz82Wa+YJNy+TFugSQnDnymdjWnPs5i3QnzpUT50zMa+ayb9de+b2PfNYbMNUcAJ30H7aV/mu07+rfl00L/Ck1bCgdgcwWfLZBdDN15tzu61StGpcR5/Jws1Lh8+qD03LXukm5s2dS7oi9/a4Tf1GgNRTIU3my0tQaEGpNX0YAscv0oU/NzQWff//PL/UadIXV9vEu170GOBihHH4jnDRfsz39RhV81ocB/Vcl81BgPrde4+FSS/LOf7/LroOdeG9U47IhiMKYrNcd68sHMwY+69J+6b+de2Am2GhAs9EsnJJjfsqPdSkcAD6X7jFzf2bDkjiXv02oN0Y3I861mve82GZBZf1sptUIvzjTWCWVL9Q0vpkv3GYc+RzESJO+1a6f8pTfrtqaE+fKiXP1xsiij2sugDb9zJjmHkDOHrUcwmcvrTW9hg2fE0ZOF60f+cXu3SwZoFZGnMtiY2ZfqfD5Tx8e8+CzAmjzfvddI/LktqngsaDRxaQsvX9ENM/M9/1jcrLqVBPyw7tG5Idbq3ZUNmwd9fL10/jpM88TKceobKjkJBu6RmTuq5P+luNjMjeS1i5/9DgrC1YdKmAqSL1L14G5jABiriHvqGcz+lmX2rCb410tDXQ2I53j50n69jhMY8PnoMH387EfCvx1G2iHx8+ShobyuntAKLMOdup9VI3tDqLL9Y93+VNs5GlWdCoOTe+yPCZvG6oYGGP2GRjtARUzalB/hMtAZQvmhAAnPhoN+FzKfTT3bLYtiXPu2hAT18uMc7b/NIYlvcqKbXZZIusmJgWwWcvoTR8kImv0P1I0rgVTcNwcxLMZRz7b/+0Rj4F87vgYSJwrJ86ZmNes5UNPPi0/e+oZr3/aPABt9zN93e3+rL0e18nAZy+NPbVGDD5Pe1NK8gOEcf06/XMZcS4PNysNPj+4aVL+esl4+Jxz7Nw78t77RmXRpgDAhnsaWfHh84wA2YbPAVCuhsijsiEOhbsmrMIpfLbBcBa8jqeVKHy2cmW1NRTIU3my0rgOcGUEEHMNaaOev3zTLd6/LtnQWdf135nMsc1c5oLPVQ109UOBlw9zPrfEPW2mn+LnLrMOxs/dKZ9V4wiUcAAJ/st9Ik9YkKOWFkiP0+Ndl7Eq/wCkmH9Lt/cbWL3XmnJD98fhswHXer1J+dh5st6Ee+zA6/XcR+JcOVCmnntTxDHrjkQjnn4uIt9G8tDYZI9Q9v67I/ZFmldq80VbMMVQ9EqSP9n5NlJGjm2+T4q8B8S5cuJcM59d7d8t+tYtP2gKgPb6k95/6ioY9vub2m9OGkRlILQ9f7OBz0bHSn7ZI6ZNepbufd7KGpcR57LYmNlXCnw+PyEeaN56fDp8Gvhs17h8u9uGueGuBlbqG/mso5BtYB2OSvbgsw2Y7aJFgbIeUw2wR+TdHuiupE1KZ5/bPgPrzVPAVJB6l66DTxkBRK8ha9Tz6xu3elNsxOGzNvCur5/8O7sBbYX7X1YdbIVrbVYZVOMiO5jxvPRHtcyIunpbGz2+2T9IGL8uPrcXGGnm/STOuW9rXce5LP/ol2f/sEpEobMum/JlWot80ZKlE/vaO6YS58qJc816lrTBs+mzxgG0/ghhs8rHed37D439H3F3rUMeblYKfFbIfMUzlVHP31s94Y2CNlNv3LluUtYdroDpejuBInWMfPZOVjnu5Kuj8m4zwjknfNZj5t4/WplGw8vTHgldgc/+tfnnC6fdqP+COdKRAnkqT1Ya55V7aKiURlJHN5uG2l5qQ57UmGuaMud7dq0z+fNAkOYBOivuveEKyiT9oGCjTUkzf5AQMNLeYKSZ95c4N3vjXDN9w7mJSbPJA8S5cuJc2vO0y+1pfVXtr+o0HHpunYJD+7suy0He7j2GxtkalxHnstiY2eccPm85Pu2NCD4w+I7Xt/vlzin5zM/H5dJfjMvfLh2XTz01JgvebHTqjZwjnuPzKt8/Kg9lzBH9w1dT5mK2RzPrtB0BrA7BdTCVRwUux+BzMJ2H2Z80GjoyitrA8EZ7xxyfWwFTQepdug6AZQQQvQb9JeAfLXqsanqNw0ePhY20joDWNJd9+VteOnufax3IP7uhQR93+pRVBzv5HqrGLjqwOqepq7eL8pInIKdZHiDOuWtDTGx3Fedsz/xks4h+QZbnraOfL3s2mnbhJuqgrSfr7eUH4lw5cc7EvLKWWeBZ4fOtP7g/7MuWVSbO495raJyscRlxLg83cw6fr3luXL7ywrg3stke3Tz1jsjHnxiTn2xsFDxbPFGhb3w+Z/uzlTRpNZxuw+y0Rz7b697+GFAWEQ8+B4DbgGU/q2haO12kvJq46jymMCzLVCBP5clK4zrwlRFAzDUogFagbBpxXZp9SUtNr//O9Pt/fql3XFIatiU3DOgye3Qpsw52qi9UY1edfB39/Fc/r34reNF30j49Jmufq7KSb3uBjtl0P4lz7tskl3FOvaYxK+9LIbWmT5qOSLfPJu9SVu5XXg8Q58qJc2U+y+qgKPs/duPrn/j8V70BVmWWiXO59xkap2tcRpzLYmNmn1P4rLBZAfMnnhyTTz41Jtc+70+9MTT2jvzl42Py4OYCwbM+WSX9eOD9o/LDpNHNAZSOgODIyOjgBwcNvK6Cwj5Q/qE117MNnO185746Zv04YeU4Ta/AW+d8DsG3OU+wXHo87yMj6YpUwFSQepeug5/rAPLyqvVy2w8fkA9/+gqv8dZ/SdJr0qXC5bTr0yk3FDqbRv7ab/JvTGlasT29gcyrzc+fWS76Nuln+mzSFbF0XQeLKONsz0M1ztt5rDXdna8ltxhmRHTSXj1G9ye9dF+tZSA9muXxwNdXiOjbpJ3ps0lXxJI413g7NVMcdhnnjAeSYlZ82+FhHzw/2Rff43/W2GfyY4kWRXtgprgW31/k+Ylz5cS5mWJho/t/9tQzMjI66vUJdFSz6YvGlwyOcn+/G72X7Xr8TP3U+P4idSgjzuXhZk7hs/34cvkvx+Vnb03KkeF35KOPjsnPthQMnvVkaSOfFeQaiByMULZBsSlnCIDNBvs4A4XNPomOZhbvs/+jg9U/IFhJq1DaQOewDHbe1rqWx0zpEZ6WlVIUyFN5stIUGSyS8nIVQHQKjXgjrZ/z/GuSTruRdKzmmXQNbKPxb9QD8UZ6ps+Nns8+3lUdtM/R6euqcZEdzKS8TIOiP7gV32/26TK+T9ObF1CmWp+4XnyuX6M4dJnpc5FaE+fct9NlxjkTs5KWOtVG2pdrmp44V38dLrJOtmteM8W1+P4idSDOlRPnXD7TDgyelf/3/RfL73zo0x6A1oFSOro5qV+q2z5x+de8AVUuy0Te7n012zSeqZ8a31/k9ZUR57LYmNlXCnweHhf5v+4ZlV2n35E/e2RMHts6lfTc0/i2xJHPY3JSEkYWh2dTMDxSAcJd+uOB/jEezDbzLVtQ2D+0ApTDrLwVM//0qFRGLVfSbugalQ12eYL1EDLb57HXoyfhk2MFTAWpd1lksEjKy1UASWusdQR0UjnsbR/61NzERj7PsXY+rNNYzwYPuKqDs+HayyqjalxkBzMpL9OUAJ8BK0n+6PRtxDn37XGZcc7Eu/jyhX1+/dfRz2kv4DMxsl3jIXGunDjn+tlx3ZtbvH7o5V/9h0QArTBaf2TQAGkdAW3+s9d12cjfvcfQOFvjMuJcHm5WCnxetmvK+9HBD/1sTJ7a5gg869NS2shn70nKQGF/mgv/4crfZkYghyOfFfrePyZLgykxvLRVILgClO0pNkKI7J8g+FtJazZHznWXBapj5wnTmQNZlqJAnsqTlcZ1AHQVQNJGPmtDPdMPCWYdq3NvudaE/LMbHfQpVh9XdZD7VLlPqrHrzq5pUIDPgBXXXpuN+RPnKvHIVWwuM86ZeGcvz46J6Hz2aVMRmbTAZ2LkbIxhecpMnCsnzrmKoXa+697cLL/1Pz4lNoDW3yrSt5k20p6SQwG0Thlp58G6ez+gcfkalxHnstiY2VcKfL5pxYR8YPGYdPW5A88RAByZu1mnwhiVDfaoaDOy2TxRBcsI6I2D7BgU9qfZ8Ecx29lEy2Ggcjp81nNGgHX8PF65q89jn5P14hUwFaTepeug6iqAZP2Lkn5bPNN1ffmmW8JvlM03y7rUxn2mY9lffkOE5vVr7qoOck8q90Q1ztNxbCSNaT2Az4CVRnzUrscS5yrxyFVsLjPOmXhnL/9hlQ+f7W1J68BnYiRxzn08cBVnmp1vmW1JHEAnXbvCaLufCoDG20k+aadtZdTBPNysFPis4HnpDnfgOekhydvmAeTgBwdt4OwB3gr0rQBjA4v9aToiczfHobA1x/O7q2C3P/dzdHsUIEdAdzAPdZjeTPWRemHscK1AnsqTlcZ1sHIVQNKmztBGWn+EMOu6dL/++5LdmJv13/vIZzOPzcqXfTwQtKIHXNXBVrzWZpVJNXbd2TVtCfAZsOLaa7Mxf+Kc+/a3rDiXNKXGtlN+vdf4l/YyxwGfiZGzMYblKTNxrpw4V+azpAJo7YO+948/Hv4IoX3+pGkmAdDufWDfA9bL1buMOJfFxsy+UuDzM7uaAJ7TnqIK2149mjk961rSpufCnvIUMBWk3qXrgOoqgChANsDYLD9/7d/L65u2hu8Vq9fLvQ8+HoHJ5jidekOn2DDHmiUNerkNjGv/kf+0uKqDaFupK6pxno5jI2lMqwJ8Bqw04qN2PZY4V4lHrmJzWXHuKy+ZaFdZ/smjIknbKykq+4HPxEjinPt44CrONDvfZrQl697wAfSCxdE+q9ECAI2fjRc6YVlGHczDzUqBz/ZDDOsoMBsUyFN5stK4DmIuA8hlX/5WFTw2ENlemmvU0c46rYa9z17XqTxMWpaVhv7EshvlPdcvkxPTlW2zU59j0nX9xXL7ltl+HbWV32UdnJ0+qE2/PNeoGrvu7Jr2CPgcAyvbRWRM5Ob5se0FfV4zJrJ7e5D3KpEhEVmzys25XHuonfMnzhUf1+Kxr4w4p6OX1ac6v7N5/WSzyH+5T2TI2mb2maWm1+P0+GbC591SiReR2FFrPJoFsebmwyIyQCwsM64S58qJc/HYV8bnI/0nEkc+m3OXC6C3yO3vz+gvHV8mV73/Ruk6nnw/2qffmHx95p6wdKNPGXEui42ZfcBn84TFEgUsBUwFqXfpOnC6DCBZPxxoQ2W9Rm20P/zpK1LBs6bX/FzrQf5uGqp8ugKf8+nUzHs0O89dBpQxYR/4HIMdZcLnWgES6Z1/KWPAj8tnDeKmH5fLiHMv7PPr95N9fsRTmKzg2Xw2cTC+1P3qBT2+mfDZ+FGXDcHnWRA7gM+xtqiEe0acc/+M2MoalwegZ4DPMwxGAj6792k7P5eUUQfzcDPgc/xJi88oICJ5Kk9WGtfBy3UAif8Qgw2dzbpC5ZlGSet+d1poI36jdG3Rb4ov9gG4PZJYv0G+fpl0LQj2Ldjil2XLQguWp3/DXCm3D1fNdUdGK3vfUi+ULh3FHC9D4jfYQZmPT4v9EKHrVy1b5n0jrvmYUcReGpPv+xfKpvDBJMhnmX0t1v6gXJvsa9Xr97YHekTym5ZpO61VBtVh04KLI+WrlDGqzVXLjjm836310OG6Dlb811rXXWa5VGMbOrhYV+isbx0FGM/f7EsC05re7Nd/XY8fW/RnHfkXvmKj4hTGhC97nxnlpyPpzCs2mjkxXwXP1uvR+SIKRIYOi5j0OmrZHo2o1+tBkxz52+XVPN9lymmNfLbTREYBmrQZ11S09p2cH3HOffwtI87d+Zofoy571q/YCzeJXLvcquQpq5pe/a/HlwGfTXzximPFMhNr7LigsePRgepRwprGiytJ0NLED401Zj0jlqSVxwBi7/yBduF/cgTn9dJYusb/s8M+VpOZOBseYsVS+7qr4uGYyBrVQV+BZmnl7uRYlnXtxLly4pzL50f9L1x7isj4uu7POn8cQOt/9Galr29fAJ8XWH23eL81MvLZT+/3L2+U2xe0y3/MuvdbffenvctVRpzLYmNmH/A5aK9ZoICtgKkg9S5dBz3XAeTw0WMVmBrCTwMt/WXa/M4hhH3/xaL5uNPCNMoV6KqQNITDAWiNAFEPsFrAOf45hLumAfLhqp2Hdw4Dsg3MNZ+n/TL56auP9QBv8KARh8/viTxwBHDaAsQ+iDbXGlx7+NASQGBTjni5zOcwv1jZPB1M3tMBpK7o5F2zVb5oWfy8DDB3d7/NPWmNpes62Ck6Zl2napzVYeyUfXGYYn/2oIQFaSKfA7higITqpVDCgBk7H90X+Rwb+WxAig1QDBAy9yEOnyP5xfLXfSGsMRAogM9EvDKsAAAgAElEQVS6zy5z5PMM12TKwrKYL0SIc+7bmzLinAHH+qVZLS/zpZweb/JwVbey4oUdayKxI/iiTMGtV64gPoSfzXaztGPNDLEkqzwmHppYakC2iWnxWPiuWDnj++3P3npaTA/iaBgfg2sIyxGLs6pJ/Dpc3b/ZnC9xrpw4l/W818g+/V0hu++Ztq6/T5R1HhtA3/qD+zPTZuWTvi9Pv9X0vez+pOmXWX3cqv6q+3uYfl2cezZoU0acy8PNgM+1PIWRtmMUyFN5stK4DkJlBJCkHw60G3QznUbaKGnd7lYHv2GOQE8PsgYNt73uNdIx4Bo03BGYHG/MFcqGgNc0rnretHP4o4TfE0BgGzCrFnouA7Ltffa6r1nCtU3b5a/eH8kjx7V76b1yJsPjyv7oNXnli+SffLzbe2/uRfOWZdTBdtdwputTjV10aHUUX8/h4t9mdGGhZY5Bi0jeSfsS4IoNjO2RgplQQvO2Rt7ZcMSUwQZCui2SJqlsBgAFQMSAGgNuvHImHVfDNZmysQQ+zxRfWmW/qzhn1wGdYkM/63QbtbwOnfWP0+Odwuekem/FCzvWROBz8IWaiSVxcGtr4K3XEEuy4mMk1gXltGOrlteOu3pu3W8gsX098TJGriFJlxmuIavc8XPx2fc3z3Pun6VdajxTf9X0XTVdnrjvbuBUdd/N/4/UhD5lfFDQdPQ/ZvNcB2nc+3o2aeyyDhodstiY2Qd8ruUpjLQdo4CpIPUuTSV0tSwjgGjZtaFOehvwbK7PAGj9cUGdauPLN93izQdt9rtZWhA4hMZWwx4BpNoAWfvC9EFjbkYMW9u1zB6ATRz5nfCgEBwbgdmRMkTLa8Nie93TKnJcpfGswOvqa4nkUXV8NSD20nvX7edlHs4iy0CXyDXpdUbyr87bzf2u6NAK+ZdVB1vhWptVBtXYRefYZUNWdHmTIIc5R9q+EHzYkCIBkJjReJ4eFmj28lfoYW1LOlccoNhp7HVTXnsZAUhWOdOOy31NFrCyz8d6fTCaOOe+3XEV5+Ke1+mB6nmZaYV+98H6PBQvR9LntHpv0tqxJhI7YlBXAa8B0ebYyNKKNZEvvWqMj155rdHJeo7wGoJzJGntwWe7DAnxys47zDOWLiseZsb1WD4RbTp4H3GunDjn4llS+6ifv/bvc4181nT3Pvh4LgDtoqx+PzToP4b9Tas/Z/WtIn06kzZxQJT7e+dGC8pdtq5lxLk83Az4nPR0wLaOVyBP5clK4zqglBFAar0GBc4zzalVa57Z6aMw10+b3IhX7TMNuQHMClm9Rt+aWmTBlsi8zIllsR4UzP4oqPXBrDfaOfbQYD9Y2OtePgn56naX8DkygtzSx5zXjOauLh/w2dMkphnbGn+wdAVlZvqRrXobQPPjXEV26NPgQwR2xKBBFpiwR+eF5bRhiQEqwGcnX3yEmsfuWatub8VnjXaLra7iXNxTtU65YeKgmXojnl+Rn7PinJ4nCz57sDX4okzTmSk3vDzNRUgApW3wa68H9TFvfPTyNrEyODa8hoR8I1rNsN/OO8wzFi+yYnx4ruA8ngSxsoZpYvl26nbiXOPPazPFZVcaRwbMJA4Wsvp1wf6Zyupuf/5+a1W/UPsYsX6ku3K69wNlL19jV3XQvpdZbMzsAz5bDyasooBRwFSQepd2RXSxXkYAcVHuYvO0QLMBfza0tde9/RYINukDoBsBq9Y+/0f4rLmQ7X26XnWO6ikqzAOE/vChmXJDdTDbT8TWfY0Srq2AaTdswOyd3xvZnKyLfa+iQD1+3cBnWyvWi3ug0jjXqZ3h8LqT/u3aAIOkfTbYsNeDYxLhSlJ+DcJnM/rOgKDweoJzRUYv2uUs+prMtbGsqy7xrFFcPEtrG4hzIjPFi0z4HMDpNfrDgTNBVjvW2OtBfMgbH5OgsH2sXd547NPPWftt+Jyoi11uez0txiXF1LS0HbqdOFdOnEuLgZ2zPaFvZ/cj7XWm3WjiCHX39aEZni8jzuXhZsBnQxtZooClQJ7Kk5XGdVApI4C4vobG8/cbcXtO5ggktRtxA429xtz6l6f4Z5MuXPpgNQKn7QeChHNEyhACav+b9yr4m/Djg0YXDw6HPxBopgAxILz6AcaG2dVQvBoQV+Bz8G26mcfau/YokE6+JqNjdd7mGtp5SR10/3CmGid13DttW3wOTxty6D4buEQ+J4CJ+LFmDlLV1N5njybUfUmwJXKuAKjYU3XMVO7w3+Nj5YznG/kcS1tV7g6FJ67qBHGOOOfKW/F8s+KFDWs1XRg7gvruxS4zujkrBtjxw1638wkAdlZ5vHhony+Wl9lvf/lmX0NVPLUAsbfPguiR+Jfyg4P2/NJZ5Y5rzmfmfC7rOZ22RNuSeL811seM9Cmj/bDwv3OrfofIfRtVlkc4j9t7WUYdzGJjZh/w2QKOrKKAUcBUkHqXrgNoGQHE9TU0nn8AYBcsrMz1ZTfKkUbcCugePDb/hmUAqrU/BM9mW/CwEP47lwHA8RHAfvoqUBuMWH6PBZL12m1YbK/bunjbk86bMH91JI+qa68GxF76YE7nsDzhuaKjtKuuKZZ/WE4rP/s62nGdOmjqh7ulakzn2O8cK7gIX9ZczKqPByfMTgtazDinaQBMzKE2ONZ8zTkVbFTBEoU1seMfjY2WtvPwzmGV28AZD5zHwE1D15QFnthXc30izrmLb6ZdJM5V5pI2MSceL6rArSawY50FbzV+pL7tWGOvB8dEvoCLxTc7Ppp4uFu//AteaUA87/4QIFvnNfC6lhgfj8t2uVN1ydKsA/YR58qJcybmde5S+5M3SteyvP1Wu/+5ULqW3Sj2gKvO1dG9X9tR2zLiXB5uBnw2TwUsUcBSIE/lyUrjOmiVEUBcX0Pj+QfweQuNUONaomGtGlIH3XtGNaaznAFSOgAKcP+be/+Jc8S5WVEHFT7bMNpxbDTw+WbH55kV2reBBsS5cuJcrc/ZpHd/X9C4czQuI85lsTGzD/hsAUdWUcAoYCpIvUvXwbyMAOL6GhrPH/jcuIad0+gWrRV10L13VGM6382Fj+jf2foT54hzsyEG6Ijl+Mhjl+UGPrdXXCTOlRPnin4OJz/39w2N20fjMuJcHm4GfDa0kSUKWArkqTxZaVwH6zICiOtraDx/4HPjGrZPo1q2FtRB995RjV0CBPJuL4DA/Sz+fhLniHMtXa/MFBUljnpWPYDPxceaZvqMOFdOnCv7OZ3zub+vaDx7NC4jzmWxMbMP+GwBR1ZRwChgKki9S9fBuIwA4voayH/2NFjcq+p7RR2s1qRon6jGzeyQcu72Agzcz9rvJ3GOOEe9qb3eoNns0ow4V06cK/oZkfzc3zc0bh+Ny4hzebgZ8NnQRpYoYCmQp/JkpXEdrMsIIK6vgfzbp0HrxHtJHXTvX9WYTvzs6sRzv9rrfhHniHPU6faq09zP6vtJnCsnznViX4Frdu8tNM6ncRlxLouNmX3AZws4sooCRgFTQepdug6EZQQQ19dA/vkaC3RqTZ2og+7vi2pMR7m6o4wmaFKWB4hzxLmyvMZ5iGvN8gBxrpw4R3/Gvc5ojMZpHigjzuXhZsBnQxtZooClQJ7Kk5UmreIXtb2MAFJUWcmHhrAdPUAddO9r1bhZnVHOCwjBAyLEOeIc9YBY2O4eIM6VE+fasS/ANbn3DhoXo3EZcS6LjZl9wGcLOLKKAkYBU0HqXboOlGUEENfXQP7FNCbo2BwdqYPudVeN273Ty/UBdlrZA8Q54lwr+5OyET+L8ABxrpw4R3/Fvc5ojMZpHigjzuXhZsBnQxtZooClQJ7Kk5UmreIXtb2MAFJUWcmHhrAdPUAddO9r1biIjiV5ACjwQH0eIM4R56g79dUddJs9uhHnyolz7dgX4JrceweNi9G4jDiXxcbMPuCzBRxZRQGjgKkg9S5dB8oyAojrayD/YhoTdGyOjtRB97qrxnTgZ08HnnvVfveKOEeco163X73mnkbvKXGunDhHf8W9zmiMxmkeKCPO5eFmwGdDG1migKVAnsqTlSat4he1vYwAUlRZyYeGsB09QB1072vVmE5ytJOMHuhRpgeIc8S5Mv3GuYhvzfAAca6cONeOfQGuyb130LgYjcuIc1lszOwDPlvAkVUUMAqYClLv0nWgLCOAuL4G8i+mMUHH5uhIHXSvu2rcjI4o5wSA4AHfA8Q54hx1gXjY7h4gzpUT5+ivuNcZjdE4zQNlxLk83Az4bGgjSxSwFMhTebLSpFX8oraXEUCKKiv50BC2oweog+59rRq3e6eX6wPstLIHiHPEuVb2J2UjfhbhAeJcOXGuHfsCXJN776BxMRqXEeey2JjZB3y2gCOrKGAUMBWk3qXrQKkBZGpqSlyfh/yLCfjo2F46at0roxHvdN+cGTwr//HedwDQ8wEMRQAG8qjNR1r3tA52ehxyff3Eudp8ST1GryI9QJwr5/mcfms5Ortur8h/dt7HsvqtebgZ8NnQRpYoYCmQp/JkpXEdnM+fPy9jY2N0CqdnZyPg2h/k79YXWve0DqKzW537B87LdS+OA5+Bz3igCR7Quqd1kDhHnCsS9pEX8LiVPECccxvfTPtBv7UcnY3eLNHb9kBZ/dYsNmb2AZ8t4MgqChgFTAWpd2lXeBfrExMT3shLDSaMgKaBceEx8qz2ldY1rXM6gkPrIBpVa1SkJqqxjgrUziEjoAEWrQQs2rksWte0zmndI865jXEaL4lzxLZ2jietem3EOfexzX4e1Dinz870W8vV3b4HrHee9mX3W/NwM+CzoY0sUcBSIE/lyUpTRoDXhly/SdbGnDca4IFyPKB1DiBT3gOcaq2jLxWE4fFyPI7Ona2z1jWtc8Q54hyxoLNjQTvff+JcefHN9InptxJP2jmmtOq1ldlvzWJjZh/w2QKOrKKAUcBUkHqXpqFlWf7DDZqjOR7AA3gAD+ABPIAH8AAewAN4AA/gATyAB9x7IA83Az4b2sgSBSwF8lSerDQEOPcBDo3RGA/gATyAB/AAHsADeAAP4AE8gAfwAB7AA83zQBYbM/uAzxZwZBUFjAKmgtS7JPA1L/ChPdrjATyAB/AAHsADeAAP4AE8gAfwAB7AA3jAvQfycDPgs6GNLFHAUiBP5clKQ4BzH+DQGI3xAB7AA3gAD+ABPIAH8AAewAN4AA/gATzQPA9ksTGzD/hsAUdWUcAoYCpIvUsCX/MCH9qjPR7AA3gAD+ABPIAH8AAewAN4AA/gATyAB9x7IA83Az4b2sgSBSwF8lSerDQEOPcBDo3RGA/gATyAB/AAHsADeAAP4AE8gAfwAB7AA83zQBYbM/uAzxZwZBUFjAKmgtS7JPA1L/ChPdrjATyAB/AAHsADeAAP4AE8gAfwAB7AA3jAvQfycDPgs6GNLFHAUiBP5clKQ4BzH+DQGI3xAB7AA3gAD+ABPIAH8AAewAN4AA/gATzQPA9ksTGzzzl8Xrx4sVx//fUyZ84cue2226Srq8t767pu032aptjXblk6Z46X/7yeQZE9S2XOkt0iZ9bKvDlzxNsWO+Fgzzw/TWz77iXJ6SPJNP/5a2Uw2JjrmCCtnrdSHi33UtkdyZwPzVDAVJB6lwS+5gU+tEd7PIAH8AAewAN4AA/gATyAB/AAHsADeAAPuPdAHm7mFD7fddddcsstt0hfX5/3fuGFF+Saa67x3rputmsaTdvQSwFwAJznzJkna89YuRn4HGzyQLMFi0UGZe38ObJ0j3WMt5oTBkfgc9Yx/nkq5fQB+YyfI2WNl5HPLhTIU3my0hDg3Ac4NEZjPIAH8AAewAN4AA/gATyAB/AAHsADeAAPNM8DWWzM7HMGn3WE89VXXy0DAwMRNmiAs71R02haPabxlwLeGHzWEc9pADcYDR0FwP7oYw9Sh0DbgGKTtwWZLficfExwrI6+jr2SRz7vlqVa3qxyx/LhY7EKmApS75LA17zAh/ZojwfwAB7AA3gAD+ABPIAH8AAewAN4AA/gAfceyMPNnMHnefPmyf3335+bCGpaPaa+VwMjiqsAbwCVPSgdnwLDBttJ8Fm3xUZQx/PRz9YUIFHobQB3bJkArevTiaPyKpCn8mSlIcC5D3BojMZ4AA/gATyAB/AAHsADeAAP4AE8gAfwAB5ongey2JjZ5ww+6zQa9957b17W56VteOoN72w2IDant0Cx2WSWifB5nsybnzTXs523lWcw8nntEh8aV+ZwFn+eaXvUtQ2fU6FyMPLZlJFl6QqYClLvksDXvMCH9miPB/AAHsADeAAP4AE8gAfwAB7AA3gAD+AB9x7Iw82cwefHHntMrrzyytzQUNPqMY2/bEBscrNAsW6ygbO97iW30sbmihbRfWnTbiyVpfOXym5rCg7NzpuGw4bMej4zlceS3f5+8zlYzutZ60+7ISL644XVc1Gb62LpSoE8lScrDQHOfYBDYzTGA3gAD+ABPIAH8AAewAN4AA/gATyAB/BA8zyQxcbMPmfw+ejRo3LFFVfI+vXrZ+SDmkbT6jGNvxQQ29NWKCy2gHQAf0Oga8Pg8LjKdBsePA5HLltg2gPRQboIcLYBtZ43BR7reQP47JdF05rzmnX7fI0rQw75FTAVpN4lga95gQ/t0R4P4AE8gAfwAB7AA3gAD+ABPIAH8AAewAPuPZCHmzmDz4r5XnvtNdE5jVevXp1K/XSfptG0jbx0hHBl/mQzOrmSo70/BM+6WyFwCJd1QzXwrfwooL1P161zWnmEo509sG2Asubtw+iwnIkjnw0sXypre+ZJZAqPyuWw5liBPJUnKw0Bzn2AQ2M0xgN4AA/gATyAB/AAHsADeAAP4AE8gAfwQPM8kMXGzD6n8Fn5oAHQ27Ztq8KFuq0I8BzNWAFvGny2QLAZrZwDPlfyr8Dn/5+9u9eRXMnOhX2dacqQL09yjiW/UBcgCJA/qHRkyqwGZHyGrDGqnXMBarQv6IAfguQig8zM6GjO5ubfM8AGs5LBv8UnVgLvEOw2YI5/XDD2NQwcg+nH8Lh/n/PDk8/dxl8f3bm3YXkbaHv/81DWP/FDTJClS41vu8an9mrPAAMMMMAAAwwwwAADDDDAAAMMrG+gJjdbPXxOeeFf/vKXhyeg44nntO6P/d8sfE7BcHpC+f2teRve15y9i/l3wueHJ5n7My+Ez5OnrNPwOF4WPg9PQrdPUqfwuQuv221j/B9bJHv7RQVqJk9pjAa3foNTYzVmgAEGGGCAAQYYYIABBhhggAEGtjNQysZi3Z8SPqec7z/+4z/aEPjf/u3fmvRfClzTd3/8/yJ87l9xkb0Oo2mD6O7p5/RkcftUchsoZ6/PaAPg7Anp/AQfQuZ+ZfZ9PBHdPfEcT0Bn+0tj+9dtpDFp/PSdz91537/1rwPpQ+r8NHxevwIxQZYuNb7tGp/aqz0DDDDAAAMMMMAAAwwwwAADDDCwvoGa3OxPC59TXPhf//Vfzf/5P/+n/S99/kP/l4fIeeA8P0gbQKewuQ+EH54sHl+t8fCO5njNxrN9vt+b+/utDZbnq7v3SKenrz+b/699rUYKmLvjR1g9efr546vdRax7eHr68QC++YMrUDN5SmM0uPUbnBqrMQMMMMAAAwwwwAADDDDAAAMMMLCdgVI2Fuv+1PD5D84H7U4FVqtATJClS41vu8an9mrPAAMMMMAAAwwwwAADDDDAAAMMrG+gJjcTPq8WX9rxkStQM3lKYzS49RucGqsxAwwwwAADDDDAAAMMMMAAAwwwsJ2BUjYW64TPR05InftqFYgJsnSp8W3X+NRe7RlggAEGGGCAAQYYYIABBhhggIH1DdTkZsLn1eJLOz5yBWomT2mMBrd+g1NjNWaAAQYYYIABBhhggAEGGGCAAQa2M1DKxmKd8PnICalzX60CMUGWLjW+7Rqf2qs9AwwwwAADDDDAAAMMMMAAAwwwsL6BmtxM+LxafGnHR65AzeQpjdHg1m9waqzGDDDAAAMMMMAAAwwwwAADDDDAwHYGStlYrBM+Hzkhde6rVSAmyNKlxrdd41N7tWeAAQYYYIABBhhggAEGGGCAAQbWN1CTmwmfV4sv7fjIFaiZPKUxGtz6DU6N1ZgBBhhggAEGGGCAAQYYYIABBhjYzkApG4t1wucjJ6TOfbUKxARZutT4tmt8aq/2DDDAAAMMMMAAAwwwwAADDDDAwPoGanIz4fNq8aUdH7kCNZOnNEaDW7/BqbEaM8AAAwwwwAADDDDAAAMMMMAAA9sZKGVjsU74fOSE1LmvVoGYIEuXGt92jU/t1Z4BBhhggAEGGGCAAQYYYIABBhhY30BNbiZ8Xi2+tOMjV6Bm8pTGaHDrNzg1VmMGGGCAAQYYYIABBhhggAEGGGBgOwOlbCzWCZ+PnJA699UqEBNk6VLj267xqb3aM8AAAwwwwAADDDDAAAMMMMAAA+sbqMnNhM+rxZd2fOQK1Eye0hgNbv0Gp8ZqzAADDDDAAAMMMMAAAwwwwAADDGxnoJSNxTrh85ETUue+WgVigixdanzbNT61V3sGGGCAAQYYYIABBhhggAEGGGBgfQM1uZnwebX40o6PXIGayVMao8Gt3+DUWI0ZYIABBhhggAEGGGCAAQYYYICB7QyUsrFYJ3w+ckLq3FerQEyQpUuNb7vGp/ZqzwADDDDAAAMMMMAAAwwwwAADDKxvoCY3Ez6vFl/a8ZErUDN5SmM0uPUbnBqrMQMMMMAAAwwwwAADDDDAAAMMMLCdgVI2FuuEz0dOSJ37ahWICbJ0qfFt1/jUXu0ZYIABBhhggAEGGGCAAQYYYICB9Q3U5GbC59XiSzs+cgVqJk9pjAa3foNTYzVmgAEGGGCAAQYYYIABBhhggAEGtjNQysZinfD5yAmpc1+tAjFBli41vu0an9qrPQMMMMAAAwwwwAADDDDAAAMMMLC+gZrcTPi8Wnxpx0euQM3kKY3R4NZvcGqsxgwwwAADDDDAAAMMMMAAAwwwwMB2BkrZWKwTPh85IXXuq1UgJsjSpca3XeNTe7VngAEGGGCAAQYYYIABBhhggAEG1jdQk5sJn1eLL+34yBWomTylMRrc+g1OjdWYAQYYYIABBhhggAEGGGCAAQYY2M5AKRuLdcLnIyekzn21CsQEWbrU+LZrfGqv9gwwwAADDDDAAAMMMMAAAwwwwMD6BmpyM+HzavGlHR+5AjWTpzRGg1u/wamxGjPAAAMMMMAAAwwwwAADDDDAAAPbGShlY7FO+HzkhNS5r1aBmCBLlxrfdo1P7dWeAQYYYIABBhhggAEGGGCAAQYYWN9ATW4mfF4tvrTjI1egZvKUxmhw6zc4NVZjBhhggAEGGGCAAQYYYIABBhhgYDsDpWws1gmfj5yQOvfVKhATZOlS49uu8am92jPAAAMMMMAAAwwwwAADDDDAAAPrG6jJzYTPq8WXdnzkCtRMntIYDW79BqfGaswAAwwwwAADDDDAAAMMMMAAAwxsZ6CUjcU64fORE1LnvloFYoIsXWp82zU+tVd7BhhggAEGGGCAAQYYYIABBhhgYH0DNbmZ8Hm1+NKOj1yBmslTGqPBrd/g1FiNGWCAAQYYYIABBhhggAEGGGCAge0MlLKxWCd8PnJC6txXq0BMkKVLjW+7xqf2as8AAwwwwAADDDDAAAMMMMAAAwysb6AmNxM+rxZf2vGRK1AzeUpjNLj1G5waqzEDDDDAAAMMMMAAAwwwwAADDDCwnYFSNhbrhM9HTkid+2oViAmydKnxbdf41F7tGWCAAQYYYIABBhhggAEGGGCAgfUN1ORmwufV4ks7PnIFaiZPaYwGt36DU2M1ZoABBhhggAEGGGCAAQYYYIABBrYzUMrGYt2q4fP7+3vzz//8z5P//vKXvzTpv/n3aezv/e9n8/nta7LJ18etefv2c/Jd98fP5vP9rfn8kf76au63+Jy+vzX37/2ob2/N7WO6z3Fnabtbc6v+797ke5qc24/P5u3lfqbbjcf36c+sQEyQpUuNb7vGp/ZqzwADDDDAAAMMMMAAAwwwwAADDKxvoCY3WzV8TgHzX//61+G/CJ5jma9LY3/rfz++mvt7CoPzsDYFxNnf3+99mFwTPr8Ol7tAe7bvNsQeg+vpuc/HNs0kfJ4O9tcOK1AzeUpjNLj1G5waqzEDDDDAAAMMMMAAAwwwwAADDDCwnYFSNhbr/pTwObLFCJ1jGd+nEPq3w+fYuA+BH59IvjdfvxE+p3D49vHZPgn9/OnpaaDcjn/29PL7Z/OzPacuBH82Lp60Hi7Bh91VICbI0qXGt13jU3u1Z4ABBhhggAEGGGCAAQYYYIABBtY3UJObHTd8/vGzefaCjZRipsC3DXhrw+dvn81bGxr/bH6mJ6r7UHkaEo/h889vb83b+9vsFR/ddt0249guVe1e7/E81N5d7uqEmqapmTylMRrc+g1OjdWYAQYYYIABBhhggAEGGGCAAQYY2M5AKRuLdauHz/GU86+Wv/vkc/dEcf/u5vYdyvG6jewVG0/D59psdR4Y94HysM+mSSF0+47o9N0tf9/0LHzu3/Ec4fOzp6EnT26/fO907bmff9z//u//Nv/wD//Q/N3f/V2TPv/R/4sJsnSp8W3X+NRe7RlggAEGGGCAAQYYYIABBhhggIH1DdTkZquGz390IPiwvxT6tk8s5+9UzoLfISjOAul2J12wPAl8n71CYxICZ/vtT6QNn/vtIljuVk3H5uPifIdrmQTnw7c+/KIC//qv/9oG/n//93/fpM9/9P9qJk9pjAa3foNTYzVmgAEGGGCAAQYYYIABBhhggAEGtjNQysZi3arh87Onnf/zP/+zSf89W/e3BYh94DsEzk3TDJ+fhc/9U9MvDjo81Tys7/Z/T++GfhI45wHz27fP7B8+HLdLAXW8EiQt28A6wud2WT6n4VQu/iGC53/8x39s/umf/qm9H390AB0TZOlS49uu8am92jPAAAMMMMAAAwwwwA3CRdQAACAASURBVAADDDDAAAPrG6jJzVYNn9OrNJ6FzM+++93XbnT561fz9X1MYiMAHt7VXB0+z1+xkb1SY9j99GnmJvuHDofjPRmbzilC5+Hp6Aic0/jsc/s6jsnT1sMOfegr8O///u9t2JxC5//5n/9p/4sAOq37o/5XM3lKYzS49RucGqsxAwwwwAADDDDAAAMMMMAAAwwwsJ2BUjYW61YPn//6178OeeA8dI4Vacyi8DmFy/1rN9p9pb9v2dPD1eFzCpbTE83jtq+efP6Kkx6W8QqPcdsumO7eQf31EcvxndCTkDkLn/Mgeti9D5MK/Pd//3fzL//yL23oHCtSCJ2+S+v+qP/FBFm61Pi2a3xqr/YMMMAAAwwwwAADDDDAAAMMMMDA+gZqcrNDh8/xVHEXOPZPL7+/jYH0y/B5GlF2r8BIr8rIA+R+zBBwj08+xxPW7es3nj6pPI6NI01fs5EdJw+fm/zd1bGl5RYVqJk8pTEa3PoNTo3VmAEGGGCAAQYYYIABBhhggAEGGNjOQCkbi3V/SvicnmxO/82ffI7vlz353IXN8cqL8Wni6fddcJm+ywLfPs1st7ndmm4fKTB+HDM+Af0YKKfdTILoYfvHsRE+j+fZn8QsfG7fU33rnpbuR1hsUIGYIEuXGt92jU/t1Z4BBhhggAEGGGCAAQYYYIABBhhY30BNbrZq+Pz+/t6+TiO9UiP+iwA6/o5lGvt7/xsD3i5EzgLb4Wnl2OMYPudhcQTXMSrC6PgHBbtlBNLpeOM/Njgd8+z77HyePNGcn8ft6dPTcVaWW1SgZvKUxmhw6zc4NVZjBhhggAEGGGCAAQYYYIABBhhgYDsDpWws1q0aPq8aGkbAPH9yOD9ouy6C4WkYnA+r+zyG3b8e/ztjf703I/78CsQEWbrU+LZrfGqv9gwwwAADDDDAAAMMMMAAAwwwwMD6Bmpys+OGz39+HumIF6pAzeQpjdHg1m9waqzGDDDAAAMMMMAAAwwwwAADDDDAwHYGStlYrBM+XyhQdan1FYgJsnSp8W3X+NRe7RlggAEGGGCAAQYYYIABBhhggIH1DdTkZsLn+jzSyAtVoGbylMZocOs3ODVWYwYYYIABBhhggAEGGGCAAQYYYGA7A6VsLNYJny8UqLrU+grEBFm61Pi2a3xqr/YMMMAAAwwwwAADDDDAAAMMMMDA+gZqcjPhc30eaeSFKlAzeUpjNLj1G5waqzEDDDDAAAMMMMAAAwwwwAADDDCwnYFSNhbrhM8XClRdan0FYoIsXWp82zU+tVd7BhhggAEGGGCAAQYYYIABBhhgYH0DNbmZ8Lk+jzTyQhWomTylMRrc+g1OjdWYAQYYYIABBhhggAEGGGCAAQYY2M5AKRuLdcLnCwWqLrW+AjFBli41vu0an9qrPQMMMMAAAwwwwAADDDDAAAMMMLC+gZrcTPhcn0caeaEK1Eye0hgNbv0Gp8ZqzAADDDDAAAMMMMAAAwwwwAADDGxnoJSNxTrh84UCVZdaX4GYIEuXGt92jU/t1Z4BBhhggAEGGGCAAQYYYIABBhhY30BNbiZ8rs8jjbxQBWomT2mMBrd+g1NjNWaAAQYYYIABBhhggAEGGGCAAQa2M1DKxmKd8PlCgapLra9ATJClS41vu8an9mrPAAMMMMAAAwwwwAADDDDAAAMMrG+gJjcTPtfnkUZeqAI1k6c0RoNbv8GpsRozwAADDDDAAAMMMMAAAwwwwAAD2xkoZWOxTvh8oUDVpdZXICbI0qXGt13jU3u1Z4ABBhhggAEGGGCAAQYYYIABBtY3UJObCZ/r80gjL1SBmslTGqPBrd/g1FiNGWCAAQYYYIABBhhggAEGGGCAge0MlLKxWCd8vlCg6lLrKxATZOlS49uu8am92jPAAAMMMMAAAwwwwAADDDDAAAPrG6jJzYTP9XmkkReqQM3kKY3R4NZvcGqsxgwwwAADDDDAAAMMMMAAAwwwwMB2BkrZWKwTPl8oUHWp9RWICbJ0qfFt1/jUXu0ZYIABBhhggAEGGGCAAQYYYICB9Q3U5GbC5/o80sgLVaBm8pTGaHDrNzg1VmMGGGCAAQYYYIABBhhggAEGGGBgOwOlbCzWCZ8vFKi61PoKxARZutT4tmt8aq/2DDDAAAMMMMAAAwwwwAADDDDAwPoGanIz4XN9HmnkhSpQM3lKYzS49RucGqsxAwwwwAADDDDAAAMMMMAAAwwwsJ2BUjYW64TPFwpUXWp9BWKCLF1qfNs1PrVXewYYYIABBhhggAEGGGCAAQYYYGB9AzW5mfC5Po808kIVqJk8pTEa3PoNTo3VmAEGGGCAAQYYYIABBhhggAEGGNjOQCkbi3XC5wsFqi61vgIxQZYuNb7tGp/aqz0DDDDAAAMMMMAAAwwwwAADDDCwvoGa3Ez4XJ9HGnmhCtRMntIYDW79BqfGaswAAwwwwAADDDDAAAMMMMAAAwxsZ6CUjcU64fOFAlWXWl+BmCBLlxrfdo1P7dWeAQYYYIABBhhggAEGGGCAAQYYWN9ATW4mfK7PI428UAVqJk9pjAa3foNTYzVmgAEGGGCAAQYYYIABBhhggAEGtjNQysZinfD5QoGqS62vQEyQpUuNb7vGp/ZqzwADDDDAAAMMMMAAAwwwwAADDKxvoCY3Ez7X55FGXqgCNZOnNEaDW7/BqbEaM8AAAwwwwAADDDDAAAMMMMAAA9sZKGVjsU74fKFA1aXWVyAmyNKlxrdd41N7tWeAAQYYYIABBhhggAEGGGCAAQbWN1CTmwmf6/NIIy9UgZrJUxqjwa3f4NRYjRlggAEGGGCAAQYYYIABBhhggIHtDJSysVgnfL5QoOpS6ysQE2TpUuPbrvGpvdozwAADDDDAAAMMMMAAAwwwwAAD6xuoyc2Ez/V5pJEXqkDN5CmN0eDWb3BqrMYMMMAAAwwwwAADDDDAAAMMMMDAdgZK2VisEz5fKFB1qfUViAmydKnxbdf41F7tGWCAAQYYYIABBhhggAEGGGCAgfUN1ORmwuf6PNLIC1WgZvKUxmhw6zc4NVZjBhhggAEGGGCAAQYYYIABBhhgYDsDpWws1p07fP7x2bzdbs0t/ffxNYlOvz4ev2uar+Z+e2s+f0yGZn+k9c+2a5qf394ejtE0P5vP9/74cR63e/OZxg5/P67Pz7Td7/tn87M/i/T327f4q2ma7/fmdrs3+TZNft0vjxPHjW37a/vl+Pl23Ymleg7nVTx+HC8r6w4/xgRZutT4tmt8aq/2DDDAAAMMMMAAAwwwwAADDDDAwPoGanKzQ4fPbYBcCkuz0Haab74Omedh77jdsyC5D2Lf38aQOz+f4fhp2zHUngTVKTwexqXzegxn83PKw+fu+h/Ht+HzsM/+CibH6b9rQ+LYfn7sLoy+fx8rMH6aj22aSfg8Djzsp5rJUxqjwa3f4NRYjRlggAEGGGCAAQYYYIABBhhggIHtDJSysVh36PB5kmzG07azJ5wnY/o/8vC3/ZwHxk8+pyd6J0Fv+7RxCpPHQLoNaYfv50d9Ej4/OU73NHQfBsf1vBwXTyCPyyEoTtv+jeHzy2C/3e8YPj8bN5zHvAwH+jsmyNKlxrdd41N7tWeAAQYYYIABBhhggAEGGGCAAQbWN1CTmx0/fI6Qdh62pqAz1k0C6RScjk8hj3loFyS/DE5jX0vC4Pb1G+Mx8/C7fW3GcO5jqPv06eXxZGefZuf+W+f6+ORz+3R1epo7f71H+0qSW9PVJzvP9ky640/Hz07xYH/WTJ7SGA1u/QanxmrMAAMMMMAAAwwwwAADDDDAAAMMbGeglI3FumOHz+2TxuOTv4/vUR4D38g+89dDtE/t9sFv/n33rubZtinQHULi2Nur5SwM/lvC54og+f59drxn51r72o00rg/rh5C8r/MYLs/C5/4cY/2zp6En92byfwa8quG238cEWbrU+LZrfGqv9gwwwAADDDDAAAMMMMAAAwwwwMD6Bmpys2OHzw/5ZApFb9k7lOcDupB2CELnIWs+vA1U46ng/inq98/mM/1DhaWnn9uAegyDH4PY3/sHB3/1BHTa/8PT2n9L+JzVIH8lSQTL3epp+JyPG99f3e9oXsds/3v+WDN5SmM0uPUbnBqrMQMMMMAAAwwwwAADDDDAAAMMMLCdgVI2FutOET6PAW8WFjfdP4IXT/FOgs4fn81n/EN6v3p6eva0czrWNIjN9vzs6eJ2dQqjxyephyeK07rJNtNQt920f6q4FHg/DZ9LAflkXdSsO/Y9C9fz68wD5rdvn9k/jDhul8ZHGD7UKcLndjnWIKvaLj/GBFm61Pi2a3xqr/YMMMAAAwwwwAADDDDAAAMMMMDA+gZqcrNDh895IFoKZ9O6IaCdhblDwJqFwENw2gfYw7YRaE/C29mT0LOwuktWp+HzJG3Njjv5/sUf6ZqHc34xpg2056+2eHacCIbb/cyD7/R3d2359XeHHMfG+eQ169613Yfa2THSmKf/Z8Cr69jw+5rJUxqjwa3f4NRYjRlggAEGGGCAAQYYYIABBhhggIHtDJSysVh36PD5aTb5LGRt37ncBdBdYB1P+2Z7SNv1ge0kSM2GpI+ldbOh2Z95+Ny9kqMUlg9hbzqnUtCdr8vC5giEsxOYPWHdr8mC4ab9BwWf1KWv3W3yjzSO4fPXR7dNXpdJyJwfI/88Obn9/RETZOlS49uu8am92jPAAAMMMMAAAwwwwAADDDDAAAPrG6jJzU4QPndP6E4C2/7p40kI+pBv9iHw7B3NaVgepM6fIm73mYe+Tz/PQ9w8cJ6texqW9yebBeJx+s+C5TZQz8LndI5DPWLDZ8eZhMFjoNwF9P0T3dl+Y1fPguqhZu0+s9drTI4xq+24w919qpk8pTEa3PoNTo3VmAEGGGCAAQYYYIABBhhggAEGGNjOQCkbi3WHDp8jJJ0ErbOQNcLiYUwbhqZgNQLSPhjOQtYhSG2a5lmwW3ztxSRszULnbP+TpHV2vg/rZtul8+mOn+374bUis4A77fTZcSbnOobP+TlEjbsnsKNmj2OjZm2983OeHKM/j9uT88sPuoPPMUGWLjW+7Rqf2qs9AwwwwAADDDDAAAMMMMAAAwwwsL6BmtzssOFzG3Jm71du/+6fQn4Mh+Pp6BTYZsFnCmTz4DZCz/77eOXFEFzXvPO5PYfsGLHPfjkNc2fvi46nqLPrmm3ehuGP1zeOGsPp8bv20xA+T0PreNVI9zTzi/OJ85osp9cY4XMcdXKdeRgdA3a+rJk8pTEa3PoNTo3VmAEGGGCAAQYYYIABBhhggAEGGNjOQCkbi3WHDZ93nl0e8PQen2Z+fRG/M/b1Xva8JibI0qXGt13jU3u1Z4ABBhhggAEGGGCAAQYYYIABBtY3UJObCZ/3nIA6t80qUDN5SmM0uPUbnBqrMQMMMMAAAwwwwAADDDDAAAMMMLCdgVI2FuuEz5vFmw685wrEBFm61Pi2a3xqr/YMMMAAAwwwwAADDDDAAAMMMMDA+gZqcjPh854TUOe2WQVqJk9pjAa3foNTYzVmgAEGGGCAAQYYYIABBhhggAEGtjNQysZinfB5s3jTgfdcgZggS5ca33aNT+3VngEGGGCAAQYYYIABBhhggAEGGFjfQE1uJnzecwLq3DarQM3kKY3R4NZvcGqsxgwwwAADDDDAAAMMMMAAAwwwwMB2BkrZWKwTPm8WbzrwnisQE2TpUuPbrvGpvdozwAADDDDAAAMMMMAAAwwwwAAD6xuoyc2Ez3tOQJ3bZhWomTylMRrc+g1OjdWYAQYYYIABBhhggAEGGGCAAQYY2M5AKRuLdcLnzeJNB95zBWKCLF1qfNs1PrVXewYYYIABBhhggAEGGGCAAQYYYGB9AzW5mfB5zwmoc9usAjWTpzRGg1u/wamxGjPAAAMMMMAAAwwwwAADDDDAAAPbGShlY7FO+LxZvOnAe65ATJClS41vu8an9mrPAAMMMMAAAwwwwAADDDDAAAMMrG+gJjcTPu85AXVum1WgZvKUxmhw6zc4NVZjBhhggAEGGGCAAQYYYIABBhhgYDsDpWws1gmfN4s3HXjPFYgJsnSp8W3X+NRe7RlggAEGGGCAAQYYYIABBhhggIH1DdTkZsLnPSegzm2zCtRMntIYDW79BqfGaswAAwwwwAADDDDAAAMMMMAAAwxsZ6CUjcU64fNm8aYD77kCMUGWLjW+7Rqf2qs9AwwwwAADDDDAAAMMMMAAAwwwsL6BmtxM+LznBNS5bVaBmslTGqPBrd/g1FiNGWCAAQYYYIABBhhggAEGGGCAge0MlLKxWCd83izedOA9VyAmyNKlxrdd41N7tWeAAQYYYIABBhhggAEGGGCAAQbWN1CTmwmf95yAOrfNKlAzeUpjNLj1G5waqzEDDDDAAAMMMMAAAwwwwAADDDCwnYFSNhbrhM+bxZsOvOcKxARZutT4tmt8aq/2DDDAAAMMMMAAAwwwwAADDDDAwPoGanIz4fOeE1DntlkFaiZPaYwGt36DU2M1ZoABBhhggAEGGGCAAQYYYIABBrYzUMrGYp3webN404H3XIGYIEuXGt92jU/t1Z4BBhhggAEGGGCAAQYYYIABBhhY30BNbiZ83nMC6tw2q0DN5CmN0eDWb3BqrMYMMMAAAwwwwAADDDDAAAMMMMDAdgZK2VisEz5vFm868J4rEBNk6VLj267xqb3aM8AAAwwwwAADDDDAAAMMMMAAA+sbqMnNhM97TkCd22YVqJk8pTEa3PoNTo3VmAEGGGCAAQYYYIABBhhggAEGGNjOQCkbi3XC583iTQfecwVigixdanzbNT61V3sGGGCAAQYYYIABBhhggAEGGGBgfQM1uZnwec8JqHPbrAI1k6c0RoNbv8GpsRozwAADDDDAAAMMMMAAAwwwwAAD2xkoZWOxTvi8WbzpwHuuQEyQpUuNb7vGp/ZqzwADDDDAAAMMMMAAAwwwwAADDKxvoCY3Ez7vOQF1bptVoGbylMZocOs3ODVWYwYYYIABBhhggAEGGGCAAQYYYGA7A6VsLNYJnzeLNx14zxWICbJ0qfFt1/jUXu0ZYIABBhhggAEGGGCAAQYYYICB9Q3U5GbC5z0noM5tswrUTJ7SGA1u/QanxmrMAAMMMMAAAwwwwAADDDDAAAMMbGeglI3FOuHzZvGmA++5AjFBli41vu0an9qrPQMMMMAAAwwwwAADDDDAAAMMMLC+gZrcTPi85wTUuW1WgZrJUxqjwa3f4NRYjRlggAEGGGCAAQYYYIABBhhggIHtDJSysVgnfN4s3nTgPVcgJsjSpca3XeNTe7VngAEGGGCAAQYYYIABBhhggAEG1jdQk5sJn/ecgDq3zSpQM3lKYzS49RucGqsxAwwwwAADDDDAAAMMMMAAAwwwsJ2BUjYW64TPm8WbDrznCsQEWbrU+LZrfGqv9gwwwAADDDDAAAMMMMAAAwwwwMD6BmpyM+HzH5qA/mw+32/N/fsfulM726ACNZOnNEaDW7/BqbEaM8AAAwwwwAADDDDAAAMMMMAAA9sZKGVjse644fOPz+bt/bP5mYLJ7/fm9vHVRpRfHxH+fjX3273pvp2nlykkfms+f6Tv07hbc3v5Xz8uHePFmLdv7Vk0TVMfPv/89tbcbnEO8/N78nc6fn69L6+t2zbVYTyvF/trr+dVjZ5sc6GvYoIsXWp82zU+tVd7BhhggAEGGGCAAQYYYIABBhhgYH0DNbnZccPnFIRG6Nwvx+C5aZoUTveB9GNmOg+fXwWw+bjHvTx+Uxc+d8HzvfnKA+XHnY3fpGuZBdXpWiNwHweOn6bh87OA/dU1j/u48qeayVMao8Gt3+DUWI0ZYIABBhhggAEGGGCAAQYYYICB7QyUsrFYd9jwuQtwnz+xnF578XT9+2fzf9snjrPtPu51Tz6nZ6RT4Dt/+rl9GvlZuBtPYE8j3Pa88lD8VwF0Wj8Lnrs9dkH38DT09DDtuY5PPqfz+42nrGf7uuKfMUGWLjW+7Rqf2qs9AwwwwAADDDDAAAMMMMAAAwwwsL6BmtzssOHzEIi24ez8KeBZ2Jq/oqPdMH+iOY199RRwPq4Lnyfvcx72G/uIJ59jOZzl8EqOMRDO1rVPNj+eQxd2P36fbTkE4nFezwLy+/dZPfId+Py0AjWTpzRGg1u/wamxGjPAAAMMMMAAAwwwwAADDDDAAAPbGShlY7Hu0OFzF7S+NZ/f4n3M3dO9P7/dm7fhnc7Z6zmGmDEPlSM4jpXPguNu3bNgt3vyOPYR28ay32cE5POnpp/8PQmR8yek4/SeLtPxb+M7odswu39Ku/Bk9vAUd7xL+um+r/llTJClS41vu8an9mrPAAMMMMAAAwwwwAADDDDAAAMMrG+gJjc7bPjcBsERzqZwN30eQtfufcrxlHEaG5+7KLULh1P4+vbt8xev3chC3Zc57OvweXKeL7cfV0zH96Hyk5B6CI6fvE6jC9/7a25rk14tkr92YxaOj4f3qa9AzeQpjdHg1m9waqzGDDDAAAMMMMAAAwwwwAADDDDAwHYGStlYrDts+Bwp6cM7lGPF5JUYY/DahrttmBvfRXAcG74IZgtPL3cBdno9Rmwby+k+x8D4ybuj8yeXY7Ns+fQ627A9riMGfzX398/mcxK4p2vMx83PL7a1jArEBFm61Pi2a3xqr/YMMMAAAwwwwAADDDDAAAMMMMDA+gZqcrPDhs9jiDwLcodXSHQBa3r9xuM/ypfW9WFsH1KnsPZ5ONy/czmFz22o2/+dbffq6el4hUYzhNIRbT5Z9vv/+WRV+ipd7/Tp7aZ/0jsPlbt/aDGNm46vDNhfHPuKX9dMntIYDW79BqfGaswAAwwwwAADDDDAAAMMMMAAAwxsZ6CUjcW6w4bPzwLdaeDav+t58sRvxKhZ+Ny+luJrFtbGuCy0HcLh9GTxvf3v6yEUfvVE8avv4zj9uQ7BefZ9+3H+5HK/vn3yefoPEn59dH9PajGce+y34nxi6EWXMUGWLjW+7Rqf2qs9AwwwwAADDDDAAAMMMMAAAwwwsL6BmtzsuOHzj6/m60cXog5PLMc7oNvANAW2/dPMk+/TyrRd98RwhLSxnGat8/D5rXmLffav7nh7z59IjlB3HhbH99O9T/56CIjHtenc2ndaj191n9I2t2n4HEPy68k/d+srzid2dNFlzeQpjdHg1m9waqzGDDDAAAMMMMAAAwwwwAADDDDAwHYGStlYrDtu+NyGomPAfP9IQWz2j+zF5/6VF9NXb/Th8/fP5q0Pb9uAdxIsx2s4+nA3C4fT+5fjFRjTYHcMdZ99P4TkT4/z7B827PY3PfcxDW7P+cXT0sPxnzwd/eyp8XGvPqUKxARZutT4tmt8aq/2DDDAAAMMMMAAAwwwwAADDDDAwPoGanKzw4bPbfD65JUa7T/M9+r798/m/35769/tfG8+X4bIEcDOn3z+bNI7mX8VPg8h8/DE9RhKx54fllm43a5rn2rOn6pO345he3eM6fue831G+JyW47unY0TF+cTQiy5rJk9pjAa3foNTYzVmgAEGGGCAAQYYYIABBhhggAEGtjNQysZi3WHD5z89E83C4TZ8/rj3r+B4az7bJ6i7J6WHoPfpE8d/+lk74MIKxARZutT4tmt8aq/2DDDAAAMMMMAAAwwwwAADDDDAwPoGanIz4fPCcNJm565AzeQpjdHg1m9waqzGDDDAAAMMMMAAAwwwwAADDDDAwHYGStlYrBM+nztDdXULKxATZOlS49uu8am92jPAAAMMMMAAAwwwwAADDDDAAAPrG6jJzYTPC8NJm527AjWTpzRGg1u/wamxGjPAAAMMMMAAAwwwwAADDDDAAAPbGShlY7FO+HzuDNXVLaxATJClS41vu8an9mrPAAMMMMAAAwwwwAADDDDAAAMMrG+gJjcTPi8MJ2127grUTJ7SGA1u/QanxmrMAAMMMMAAAwwwwAADDDDAAAMMbGeglI3FOuHzuTNUV7ewAjFBli41vu0an9qrPQMMMMAAAwwwwAADDDDAAAMMMLC+gZrcTPi8MJy02bkrUDN5SmM0uPUbnBqrMQMMMMAAAwwwwAADDDDAAAMMMLCdgVI2FuuEz+fOUF3dwgrEBFm61Pi2a3xqr/YMMMAAAwwwwAADDDDAAAMMMMDA+gZqcjPh88Jw0mbnrkDN5CmN0eDWb3BqrMYMMMAAAwwwwAADDDDAAAMMMMDAdgZK2VisEz6fO0N1dQsrEBNk6VLj267xqb3aM8AAAwwwwAADDDDAAAMMMMAAA+sbqMnNhM8Lw0mbnbsCNZOnNEaDW7/BqbEaM8AAAwwwwAADDDDAAAMMMMAAA9sZKGVjsU74fO4M1dUtrEBMkKVLjW+7xqf2as8AAwwwwAADDDDAAAMMMMAAAwysb6AmNxM+LwwnbXbuCtRMntIYDW79BqfGaswAAwwwwAADDDDAAAMMMMAAAwxsZ6CUjcU64fO5M1RXt7ACMUGWLjW+7Rqf2qs9AwwwwAADDDDAAAMMMMAAAwwwsL6BmtxM+LwwnLTZuStQM3lKYzS49RucGqsxAwwwwAADDDDAAAMMMMAAAwwwsJ2BUjYW64TP585QXd3CCsQEWbrU+LZrfGqv9gwwwAADDDDAAAMMMMAAAwwwwMD6BmpyM+HzwnDSZueuQM3kKY3R4NZvcGqsxgwwwAADDDDAAAMMMMAAAwwwwMB2BkrZWKwTPp87Q3V1CysQE2TpUuPbrvGpvdozwAADDDDAAAMMMMAAAwwwwAAD6xuoyc2EzwvDSZuduwI1k6c0RoNbv8GpsRozwAADDDDAAAMMMMAAAwwwwAAD2xkoZWOxTvh87gzV1S2sQEyQpUuNb7vGp/ZqzwADDDDAAAMMMMAAAwwwwAADDKxvoCY3Ez4vDCdtdu4K1Eye0hgNbv0Gp8ZqzAADDDDAAAMMMMAAAwwwwAADDGxnhxAkOwAAIABJREFUoJSNxTrh87kzVFe3sAIxQZYuNb7tGp/aqz0DDDDAAAMMMMAAAwwwwAADDDCwvoGa3Ez4vDCctNm5K1AzeUpjNLj1G5waqzEDDDDAAAMMMMAAAwwwwAADDDCwnYFSNhbrhM/nzlBd3cIKxARZutT4tmt8aq/2DDDAAAMMMMAAAwwwwAADDDDAwPoGanIz4fPCcNJm565AzeQpjdHg1m9waqzGDDDAAAMMMMAAAwwwwAADDDDAwHYGStlYrBM+nztDdXULKxATZOlS49uu8am92jPAAAMMMMAAAwwwwAADDDDAAAPrG6jJzYTPC8NJm527AjWTpzRGg1u/wamxGjPAAAMMMMAAAwwwwAADDDDAAAPbGShlY7FO+HzuDNXVLaxATJClS41vu8an9mrPAAMMMMAAAwwwwAADDDDAAAMMrG+gJjcTPi8MJ2127grUTJ7SGA1u/QanxmrMAAMMMMAAAwwwwAADDDDAAAMMbGeglI3FOuHzuTNUV7ewAjFBli41vu0an9qrPQMMMMAAAwwwwAADDDDAAAMMMLC+gZrcTPi8MJy02bkrUDN5SmM0uPUbnBqrMQMMMMAAAwwwwAADDDDAAAMMMLCdgVI2FuuEz+fOUF3dwgrEBFm61Pi2a3xqr/YMMMAAAwwwwAADDDDAAAMMMMDA+gZqcjPh88Jw0mbnrkDN5CmN0eDWb3BqrMYMMMAAAwwwwAADDDDAAAMMMMDAdgZK2VisEz6fO0N1dQsrEBNk6VLj267xqb3aM8AAAwwwwAADDDDAAAMMMMAAA+sbqMnNhM8Lw0mbnbsCNZOnNEaDW7/BqbEaM8AAAwwwwAADDDDAAAMMMMAAA9sZKGVjse5E4fPP5vP9rfn88Xuh6M9vb83t/bP52W721dxvt+b+vbCP7/dsfD/ux2fzdrs3X4XNmubVvtP3z7btxt9ut6buv+k+vj5uzdu37qqa9vxe7We6XfESLrQyJsjSpca3XeNTe7VngAEGGGCAAQYYYIABBhhggAEG1jdQk5tdO3xuQ9lpYD0Nox/T1rR+CHX71ZOg93GT7ptJaJ2C8gi5S+FzHgy/Cq/T7h/3UXVOr87V903N5CmN0eDWb3BqrMYMMMAAAwwwwAADDDDAAAMMMMDAdgZK2VisO1H4nALYaZBczlC7MHceJDdNFwzPv29D6YenkO/NV+mp4o/xWehJGJy2mTxtnYfMcdbTQDlt//QJ6HY/49hn44pPcsfhLCcViAmydKnxbdf41F7tGWCAAQYYYIABBhhggAEGGGCAgfUN1ORmBw6fu/D4aSA7C4kfw9cuYL5l4fAkeXz1ioxJaJy2eB5Ux/fDcdNTz1kw/iwgzq+j224MlNunrd/nT1x31z8f213Hq/OaXqW/XlegZvKUxmhw6zc4NVZjBhhggAEGGGCAAQYYYIABBhhgYDsDpWws1h04fJ4Hh2NYO67JA9r4tvtufM9zfD9f9uOygDqFxinsjWWTQuVh/Xj8Nlwevu+D7gifH171MW43PYP+++wY7dPXab9tmJ2903n+2o3+aex4evtXYfd4DdMzuPJfMUGWLjW+7Rqf2qs9AwwwwAADDDDAAAMMMMAAAwwwsL6Bmtzs4OFzCmj7V220gev89RXd+vvH2xAST4PhPl59um1alz0hncb0r8oYwuc8nX2xjy4w/hz+McT2Keb4hwDb7X8RPmfHaPfVP9UdwXK3erqPfNxDyP7iPLPD+Ng03vn8/9ZvUH4E1JgBBhhggAEGGGCAAQYYYIABBhg4roHTh89dsNu/Vzk9DTy8Rzny0z6c/v7ZvN3mwXSMqXxFRf+0cf56jPR5eLXGi1D36yMdNx3j1fuop8FxnFX8I4L37F3PeeCcB8xv3z6b+3B93f7Sdml8BOVp2W4f59kuX53TeBZX/VQzeUpjNM7jNk73zr1jgAEGGGCAAQYYYIABBhhggAEGfm2glI3FuuM++TwLT1MYm4ezXWjah88/CgHzLLQeQtpC6hqB7mTIw6sw8rVj+Jy2nQfYD3/P/hHB8Vq6bYfAezjEGGBHHSbXEYFzGp99bs9leD3IsDMfPPncaLC/brBqpEYMMMAAAwwwwAADDDDAAAMMMHBlAxEwl5aHDZ+nwWmEzPPcNPt+FjJ3I7P1w6ZdUP0Y8A4D2qeJIzDuAu9+m2+vnrAew+dxL/FpDI7jm2756vvuWPk/YBhPSadnwLsnrbv3UkcYP6lVFj7nQfT02P4qTZqadVduPK7dDy8DDDDAAAMMMMAAAwwwwAADDDBwfgM1Gdlhw+cxHu3D2GdP8OZB67jB8GnydPDw7fTp4Pi6DXD79y1PXrfRBr634ZUfk6A3Nv4bXruRAuX8FRvP/3HAx6B6uLa2BtnrNWY1GcYN5+pDqkDN5CmN0WDP32DdY/eYAQYYYIABBhhggAEGGGCAAQaubKCUjcW6Y4fPbZB6G/4xwYfYtH0VxvN3PbeBbhZYz8Pl9snmh3dId0dIY7sno1PoOwbP3dp4Mjk/7h/35PMkiI5/bLF5HT6315Vd58PTzoUaPdTzQl/EBFm6vHLjce1+eBlggAEGGGCAAQYYYIABBhhggIHzG6jJzY4bPrehafZEbxuM9mHwiyeUIzudBriv3qOcXl0x33+3hy58LjxxPXsauln85HPF+6GHa83D7ulrN9JZT645D6OjKJaTCtRMntIYDfb8DdY9do8ZYIABBhhggAEGGGCAAQYYYODKBkrZWKw7bvg8iQrP+Mfj08yvr/J3xr7eizVjBWKCLF1eufG4dj+8DDDAAAMMMMAAAwwwwAADDDDAwPkN1ORmwucxb/RJBYYK1Eye0hgN9vwN1j12jxlggAEGGGCAAQYYYIABBhhg4MoGStlYrBM+D3GjDyowViAmyNLllRuPa/fDywADDDDAAAMMMMAAAwwwwAADDJzfQE1uJnwe80afVGCoQM3kKY3RYM/fYN1j95gBBhhggAEGGGCAAQYYYIABBq5soJSNxTrh8xA3+qACYwVigixdXrnxuHY/vAwwwAADDDDAAAMMMMAAAwwwwMD5DdTkZsLnMW/0SQWGCtRMntIYDfb8DdY9do8ZYIABBhhggAEGGGCAAQYYYODKBkrZWKwTPg9xow8qMFYgJsjS5ZUbj2v3w8sAAwwwwAADDDDAAAMMMMAAAwyc30BNbiZ8HvNGn1RgqEDN5CmN0WDP32DdY/eYAQYYYIABBhhggAEGGGCAAQaubKCUjcU64fMQN/qgAmMFYoIsXV658bh2P7wMMMAAAwwwwAADDDDAAAMMMMDA+Q3U5GbC5zFv9EkFhgrUTJ7SGA32/A3WPXaPGWCAAQYYYIABBhhggAEGGGDgygZK2VisEz4PcaMPKjBWICbI0uWVG49r98PLAAMMMMAAAwwwwAADDDDAAAMMnN9ATW4mfB7zRp9UYKhAzeQpjdFgz99g3WP3mAEGGGCAAQYYYIABBhhggAEGrmyglI3FOuHzEDf6oAJjBWKCLF1eufG4dj+8DDDAAAMMMMAAAwwwwAADDDDAwPkN1ORmwucxb/RJBYYK1Eye0hgN9vwN1j12jxlggAEGGGCAAQYYYIABBhhg4MoGStlYrBM+D3GjDyowViAmyNLllRuPa/fDywADDDDAAAMMMMAAAwwwwAADDJzfQE1uJnwe80afVGCoQM3kKY3RYM/fYN1j95gBBhhggAEGGGCAAQYYYIABBq5soJSNxTrh8xA3+qACYwVigixdXrnxuHY/vAwwwAADDDDAAAMMMMAAAwwwwMD5DdTkZsLnMW/0SQWGCtRMntIYDfb8DdY9do8ZYIABBhhggAEGGGCAAQYYYODKBkrZWKwTPg9xow8qMFYgJsjS5ZUbj2v3w8sAAwwwwAADDDDAAAMMMMAAAwyc30BNbiZ8HvNGn1RgqEDN5CmN0WDP32DdY/eYAQYYYIABBhhggAEGGGCAAQaubKCUjcU64fMQN/qgAmMFYoIsXV658bh2P7wMMMAAAwwwwAADDDDAAAMMMMDA+Q3U5GbC5zFv9EkFhgrUTJ7SGA32/A3WPXaPGWCAAQYYYIABBhhggAEGGGDgygZK2VisEz4PcaMPKjBWICbI0uWVG49r98PLAAMMMMAAAwwwwAADDDDAAAMMnN9ATW4mfB7zRp9UYKhAzeQpjdFgz99g3WP3mAEGGGCAAQYYYIABBhhggAEGrmyglI3FOuHzEDf6oAJjBWKCLF1eufG4dj+8DDDAAAMMMMAAAwwwwAADDDDAwPkN1ORmwucxb/RJBYYK1Eye0hgN9vwN1j12jxlggAEGGGCAAQYYYIABBhhg4MoGStlYrBM+D3GjDyowViAmyNLllRuPa/fDywADDDDAAAMMMMAAAwwwwAADDJzfQE1uJnwe80afVGCoQM3kKY3RYM/fYN1j95gBBhhggAEGGGCAAQYYYIABBq5soJSNxTrh8xA3+qACYwVigixdXrnxuHY/vAwwwAADDDDAAAMMMMAAAwwwwMD5DdTkZsLnMW/0SQWGCtRMntIYDfb8DdY9do8ZYIABBhhggAEGGGCAAQYYYODKBkrZWKwTPg9xow8qMFYgJsjS5ZUbj2v3w8sAAwwwwAADDDDAAAMMMMAAAwyc30BNbiZ8HvNGn1RgqEDN5CmN0WDP32DdY/eYAQYYYIABBhhggAEGGGCAAQaubKCUjcU64fMQN/qgAmMFYoIsXV658bh2P7wMMMAAAwwwwAADDDDAAAMMMMDA+Q3U5GbC5zFv9EkFhgrUTJ7SGA32/A3WPXaPGWCAAQYYYIABBhhggAEGGGDgygZK2VisEz4PcaMPKjBWICbI0uWVG49r98PLAAMMMMAAAwwwwAADDDDAAAMMnN9ATW4mfB7zRp9UYKhAzeQpjdFgz99g3WP3mAEGGGCAAQYYYIABBhhggAEGrmyglI3FulOEz18ft+Z2uzX37312+OOzebvdm68hSvyND2nb98/m55NNfn57a96+PVvTNM33e3N7sd2TXa331fz8n9UiffcxVifql2pY899Q53QVk+v+2Xy+v97HZLv1KvCH7DkmyNLllRuPa/fDywADDDDAAAMMMMAAAwwwwAADDJzfQE1udtjwOQXBEZROA+Gv5v40RH1rPn+kXPJFQBph7Dy8nUSZadvYTx+8xnZ5CJvtoxzsZvsazutZaP6ra8pOMjv28G36bgjju33lQXA6x/nft7iuYSfdh/nYafg8G3zgP2smT2mMBnv+Buseu8cMMMAAAwwwwAADDDDAAAMMMHBlA6VsLNYdNnyOXHP6NHIXrE7D6KZpg+rap5KfhbdxsLRMIXMEs/PPcYxX+8gD6nyfsd/3e3N/vz15ujpdVx5Udxt3AXwfVrcB8/Sp43kd0lYpPJ5/PwmU0zkWwvth7LNxUZf5tR3w75ggS5dXbjyu3Q8vAwwwwAADDDDAAAMMMMAAAwwwcH4DNbnZqcLnCFbjqei3j3vzloLUmlD0WZjah7AprE37noay9+arsM3TV3Ck8RFQzwLZybk/jHkePjeTJ5r7HU6O0YXx0/POrqM/zhAot6H528NrR9pr72s4jO0P91vB/uya9/xnzeQpjdFgz99g3WP3mAEGGGCAAQYYYIABBhhggAEGrmyglI3FusOGz20gOntCN14d8fN7HzoPr5r4jZhzEt6+flJ4/vRw1RFm+x63ycLlNlCeP+WcrR83ap/onp9HW5eH8Drb6MnHLlBOx8ifok6f+/A62980fO5fYRLr0/XN7sn072evFHlyQjv4KibI0uWVG49r98PLAAMMMMAAAwwwwAADDDDAAAMMnN9ATW522PC5yye78DMC2CGQfv9sPtOTys+eeC4EpG14PQuI0z7T/tsnfNv9dce8f++D2VLYGqFshKmzfcfX86eH2+uYnHvhWC/H1Qe900C5abonqvsnpGfXMBk7edXHPDCPOsVVHmtZM3lKYzTY8zdY99g9ZoABBhhggAEGGGCAAQYYYICBKxsoZWOx7tjhcx4k5yFp/n0eDudBbfuKic/m5ywTHUPmtCILUIfx6bt50Dp7F/Rsn8OfT8Pn7BgxsD3/PDxO4fOLY2bfp3NvXzWSapH2kV9v7PvJsg2UP7KnlvNa5gFzH+rHE+bDdvnxhmuM6+qW8X8QPDn8Lr+KCbJ0eeXG49r98DLAAAMMMMAAAwwwwAADDDDAAAPnN1CTmx04fO5C4PvHW/cP6A1h67OgNoLQMeecPME7fj37B/ny7WK/aZmC4W7d9LUS2fuUb7cmQtph90MwO3zT/QOGeUCefR4D2zh2tl37sTuHdlwbEt+bryEkT68MuTf3h3dVj+cY5zevRfq7va4n4fUwNo4zuaa8XtnnNCZe6TG/hJ3+XTN5SmM02PM3WPfYPWaAAQYYYIABBhhggAEGGGCAgSsbKGVjse6w4XM8odw+7fstnl9OIe089O1D4jxIjeA0BZ+T8HQe8mYBajwF/e2z/wf5snVpH2n/EQDH2O+zZHVyrG5dG/Tm59Zv0n4/PIE8P6/Y7/QchhB62C7GlZdDoDwb1tb41r12JFYNY7/fu3A9v6b0eQiZs3N7VY/Y6Q6XMUGWLq/ceFy7H14GGGCAAQYYYIABBhhggAEGGGDg/AZqcrPDhs/pqd6v9GKM9KqJNnxOYWf/aoo2BB2f8B2fIO5Szq+PflwbFnfj0lPAj0HwNMxO69/e3/rXWWThajreovB5uv9JBtueW7xq40X4PAl7+63zYH2yw9d/DIFyVo8xRJ5uN4yNr9M5tGF3V4+x1ll90thhXGy472XN5CmN0WDP32DdY/eYAQYYYIABBhhggAEGGGCAAQaubKCUjcW6w4bPEV2O4XN80wed7esr8vcm9+vzgDWeEB6+m49/DH3jaeDb+725v/dPWS8Mn7t9zY8Z19GFt917m7uQ+vEVHxFOxzb9PxYY15V9Xfr4ECinwUNNunA+QuWHsREqp+Xw1HPawSx8bgpBe+nkNloXE2Tp8sqNx7X74WWAAQYYYIABBhhggAEGGGCAAQbOb6AmNztR+JwFtE9eY1HOMKch8xAwpwC7D3JT6Brh7/ik9fwVH+kocR5PguHySfwxa1No/OSc49yny+4c82ubrh+vOf8+3hXdnnCEz3H2k9D6VbAeg/e7rJk8pTEa7PkbrHvsHjPAAAMMMMAAAwwwwAADDDDAwJUNlLKxWHf48Hm/8eVxzuzhaebCqf/O2MJudr8qJsjS5ZUbj2v3w8sAAwwwwAADDDDAAAMMMMAAAwyc30BNbiZ83n0M6gS3qEDN5CmN0WDP32DdY/eYAQYYYIABBhhggAEGGGCAAQaubKCUjcU64fMWyaZj7r4CMUGWLq/ceFy7H14GGGCAAQYYYIABBhhggAEGGGDg/AZqcjPh8+5jUCe4RQVqJk9pjAZ7/gbrHrvHDDDAAAMMMMAAAwwwwAADDDBwZQOlbCzWCZ+3SDYdc/cViAmydHnlxuPa/fAywAADDDDAAAMMMMAAAwwwwAAD5zdQk5sJn3cfgzrBLSpQM3lKYzTY8zdY99g9ZoABBhhggAEGGGCAAQYYYICBKxsoZWOxTvi8RbLpmLuvQEyQpcsrNx7X7oeXAQYYYIABBhhggAEGGGCAAQYYOL+BmtxM+Lz7GNQJblGBmslTGqPBnr/BusfuMQMMMMAAAwwwwAADDDDAAAMMXNlAKRuLdcLnLZJNx9x9BWKCLF1eufG4dj+8DDDAAAMMMMAAAwwwwAADDDDAwPkN1ORmwufdx6BOcIsK1Eye0hgN9vwN1j12jxlggAEGGGCAAQYYYIABBhhg4MoGStlYrBM+b5FsOubuKxATZOnyyo3HtfvhZYABBhhggAEGGGCAAQYYYIABBs5voCY3Ez7vPgZ1gltUoGbylMZosOdvsO6xe8wAAwwwwAADDDDAAAMMMMAAA1c2UMrGYp3weYtk0zF3X4GYIEuXV248rt0PLwMMMMAAAwwwwAADDDDAAAMMMHB+AzW5mfB59zGoE9yiAjWTpzRGgz1/g3WP3WMGGGCAAQYYYIABBhhggAEGGLiygVI2FuuEz1skm465+wrEBFm6vHLjce1+eBlggAEGGGCAAQYYYIABBhhggIHzG6jJzYTPu49BneAWFaiZPKUxGuz5G6x77B4zwAADDDDAAAMMMMAAAwwwwMCVDZSysVgnfN4i2XTM3VcgJsjS5ZUbj2v3w8sAAwwwwAADDDDAAAMMMMAAAwyc30BNbiZ83n0M6gS3qEDN5CmN0WDP32DdY/eYAQYYYIABBhhggAEGGGCAAQaubKCUjcU64fMWyaZj7r4CMUGWLq/ceFy7H14GGGCAAQYYYIABBhhggAEGGGDg/AZqcjPh8+5jUCe4RQVqJk9pjAZ7/gbrHrvHDDDAAAMMMMAAAwwwwAADDDBwZQOlbCzWCZ+3SDYdc/cViAmydHnlxuPa/fAywAADDDDAAAMMMMAAAwwwwAAD5zdQk5sJn3cfgzrBLSpQM3lKYzTY8zdY99g9ZoABBhhggAEGGGCAAQYYYICBKxsoZWOxTvi8RbLpmLuvQEyQpcsrNx7X7oeXAQYYYIABBhhggAEGGGCAAQYYOL+BmtxM+Lz7GNQJblGBmslTGqPBnr/BusfuMQMMMMAAAwwwwAADDDDAAAMMXNlAKRuLdcLnLZJNx9x9BWKCLF1eufG4dj+8DDDAAAMMMMAAAwwwwAADDDDAwPkN1ORmwufdx6BOcIsK1Eye0hgN9vwN1j12jxlggAEGGGCAAQYYYIABBhhg4MoGStlYrBM+b5FsOubuKxATZOnyyo3HtfvhZYABBhhggAEGGGCAAQYYYIABBs5voCY3Ez7vPgZ1gltUoGbylMZosOdvsO6xe8wAAwwwwAADDDDAAAMMMMAAA1c2UMrGYp3weYtk0zF3X4GYIEuXV248rt0PLwMMMMAAAwwwwAADDDDAAAMMMHB+AzW5mfB59zGoE9yiAjWTpzRGgz1/g3WP3WMGGGCAAQYYYIABBhhggAEGGLiygVI2FuuEz1skm465+wrEBFm6vHLjce1+eBlggAEGGGCAAQYYYIABBhhggIHzG6jJzYTPu49BneAWFaiZPKUxGuz5G6x77B4zwAADDDDAAAMMMMAAAwwwwMCVDZSysVgnfN4i2XTM3VcgJsjS5ZUbj2v3w8sAAwwwwAADDDDAAAMMMMAAAwyc30BNbiZ83n0M6gS3qEDN5CmN0WDP32DdY/eYAQYYYIABBhhggAEGGGCAAQaubKCUjcU64fMWyaZj7r4CMUGWLq/ceFy7H14GGGCAAQYYYIABBhhggAEGGGDg/AZqcjPh8+5jUCe4RQVqJk9pjAZ7/gbrHrvHDDDAAAMMMMAAAwwwwAADDDBwZQOlbCzWnSJ8/vq4Nbfbrbl/72PKH5/N2+3efC1JLdO275/Nzyfb/vz21rx9e7amaZrv9+b2Yrsnu5p+1Z5vdw23j+lZt9c2+65pvpr77a35/DHdTffXz+bzfVyXzjnV5uV/+Tnn51Hapl0X9U3nUtj/w7rYrjvbdH1DTYvHn2737Mr/yO9igixdXrnxuHY/vAwwwAADDDDAAAMMMMAAAwwwwMD5DdTkZocNn/NQdQgv2/TxVRgagWwKZ5+EpRHwFsLnppkGu23gHNvl4fNsHxGOVwXAkwT1dcjcXn8eHOfbpXOZhe9fH3l429dovv3svNtd5tcVx2hD4thf2ld8TgO6fQ//R0Bs0y7nY5tmEj5Pxm77R83kKY3RYM/fYN1j95gBBhhggAEGGGCAAQYYYIABBq5soJSNxbrDhs8RTU6fRu6Cz2kY3TTFoDZ2FMtnAWysS8sUxuaBc/45wtzSPtrg9jbuI9/37HN73v3+288PTxFPQ/T8uqd1+dn8/JYC6Rifh8XZQZ+d92+Gzy+D9rY2Y/j8bNzzwDo7vz/xY0yQpcsrNx7X7oeXAQYYYIABBhhggAEGGGCAAQYYOL+BmtzsVOFzPEUbQe3bx715S4FrBMSl8LJ9WjjC2ekyhbqPYem9+Sps8/AKjgidI6DOzyXWTc4zBbXxtHY+uHtyuzqoLZ1jqk1+PnEeQ0g9rcMYXqfvI8AeA+U28H6fv5qk+z8EuvMdx3ZX1F1LHprnV7rl55rJUxqjwZ6/wbrH7jEDDDDAAAMMMMAAAwwwwAADDFzZQCkbi3WHDZ8fw+Dxnc8/v/eh8xCQ/kaMOXvSNwLtfA/PvsvXP3z+VQD8JGTOj9Feax8S598/vAYkvfSif//1EA5PrmcWXM+fdJ7/nS5ksn1/ZW1IPQuf07j8Ke30ub/uMVyehc992B3rx3N/EXpPwvmHKv+hX8QEWbq8cuNx7X54GWCAAQYYYIABBhhggAEGGGCAgfMbqMnNDhs+d0nj9MnZIbx8/2w+Uwj7LKzsA9HpU7xd2Nk+nTsLWyPsbZ+mbvcXAW73RO+z/Qzf5U8VT6LRftuX67tjDPvpr2M8h2xnkyA4vs9C3sL1tvvPz+FvCZ/j0E3/mpP+6ekIlrvV2XnNxk2ewE6Dn15XdpCVP9ZMntIYDfb8DdY9do8ZYIABBhhggAEGGGCAAQYYYODKBkrZWKw7dvicB6t5iJp/n79CIg+jnwWtEYgO4yJo7sPQ9hjpuyevw0jHHLZ7nowO4fjsiez2+2fb/vhsPr/3+3p1TXF9+fW3/+hf/2Ry2m5Yl11P2u28Bm3g++Kp4zjOsJw++Xwfnri+NXngHK9ASUH327fP7B8n7ILotF0an2qQwv8I+4fwuT2nJ/V+XuI/7NuYIEuXV248rt0PLwMMMMAAAwwwwAADDDDAAAMMMHB+AzW52YHD5y4Evn/07xgewt8Uas7Dylno2r+e4tl7k4fws40x8+1iv/H0brdueDp5CGXH8Db2nwewpfFpXWzTha/jvoZANwuT83ON8LZLX+Mc+9dmPDm34TyGYHr2jylGjJsdL74aguH2i+we8bFuAAAgAElEQVRYw9/Zk+TDRunDODbVJELn4draoLkPtbPP6dp+FexPDvMH/FEzeUpjNNjzN1j32D1mgAEGGGCAAQYYYIABBhhggIErGyhlY7HusOFzvIIiQswub0zhZhbgtl/2IXH+ZHEKNiN0nYSrafs8uM7D5/7zt9g2WxfB9xCYZuteBaGT48agcbsusI6ni2P9NCDOw+dsxCTknb6zedx/Oz6vQ//U9xAExw6fnedwnWnQGCjHJt2yO9ZtUs9x7NdHd235NUxC5vwY+efpQVb7KybI0uWVG49r98PLAAMMMMAAAwwwwAADDDDAAAMMnN9ATW522PA5wssxfE5hZx8cp8A0e9p3Hqh+ffTj2lBzfEp3En62seY0zG6D0ve3/incLMitCp+n+8pD4cfj5plqH+K2YXl2zP7p7eHa4hzSpnlYOwmP++1TgB71yUL5dB7Dk9dxCpPt+y/z/WfhcxeY909rZ/uNXT0LqtuafvvZn3MW/E+Okb2OY9zZqp9qJk9pjAZ7/gbrHrvHDDDAAAMMMMAAAwwwwAADDDBwZQOlbCzWHTZ8juRxDJ/jm/xVE0+eHM4C5+FdyMN38/EpMM4C0XgndApu3+/N/b0PayP4HQLTaUgcoewk2J2Fum0AnT+1PZxTHL8PobNQdwhu47zSurTf21uTXkdym71bOqvQ48fh3GerZufZrp2MHZ9mzreMa+7+T4C4hsexcQ3t9WfXNgnQ047b65rfn/yIf+znmCBLl1duPK7dDy8DDDDAAAMMMMAAAwwwwAADDDBwfgM1udmJwufuyeI27MxDzKpMchoyT4LT/vUcEQ6n/XdPG08D5vEwcR5d4NpuF6/46J9Wjqeyh6eWh427be/f076zoLUNXl88lRxPMPfB9fBUd9pnv10c7+Xy46t5GuLHPrKnrod9DDWO6x3fTz2Myc5t/C67rvnT2xGix3bDMYYC/WkfaiZPaYwGe/4G6x67xwwwwAADDDDAAAMMMMAAAwwwcGUDpWws1h0+fP7T0kgHelGBFD5PA+UXAwvvh369xVZrYoIsXV658bh2P7wMMMAAAwwwwAADDDDAAAMMMMDA+Q3U5GbC563STcfddQVqJk9pjAZ7/gbrHrvHDDDAAAMMMMAAAwwwwAADDDBwZQOlbCzWCZ93HYE6ua0qEBNk6fLKjce1++FlgAEGGGCAAQYYYIABBhhggAEGzm+gJjcTPm+VbjruritQM3lKYzTY8zdY99g9ZoABBhhggAEGGGCAAQYYYICBKxsoZWOxTvi86wjUyW1VgZggS5dXbjyu3Q8vAwwwwAADDDDAAAMMMMAAAwwwcH4DNbmZ8HmrdNNxd12BmslTGqPBnr/BusfuMQMMMMAAAwwwwAADDDDAAAMMXNlAKRuLdcLnXUegTm6rCsQEWbq8cuNx7X54GWCAAQYYYIABBhhggAEGGGCAgfMbqMnNhM9bpZuOu+sK1Eye0hgN9vwN1j12jxlggAEGGGCAAQYYYIABBhhg4MoGStlYrBM+7zoCdXJbVSAmyNLllRuPa/fDywADDDDAAAMMMMAAAwwwwAADDJzfQE1uJnzeKt103F1XoGbylMZosOdvsO6xe8wAAwwwwAADDDDAAAMMMMAAA1c2UMrGYp3wedcRqJPbqgIxQZYur9x4XLsfXgYYYIABBhhggAEGGGCAAQYYYOD8BmpyM+HzVumm4+66AjWTpzRGgz1/g3WP3WMGGGCAAQYYYIABBhhggAEGGLiygVI2FuuEz7uOQJ3cVhWICbJ0eeXG49r98DLAAAMMMMAAAwwwwAADDDDAAAPnN1CTmwmft0o3HXfXFaiZPKUxGuz5G6x77B4zwAADDDDAAAMMMMAAAwwwwMCVDZSysVgnfN51BOrktqpATJClyys3Htfuh5cBBhhggAEGGGCAAQYYYIABBhg4v4Ga3Ez4vFW66bi7rkDN5CmN0WDP32DdY/eYAQYYYIABBhhggAEGGGCAAQaubKCUjcU64fOuI1Ant1UFYoIsXV658bh2P7wMMMAAAwwwwAADDDDAAAMMMMDA+Q3U5GbC563STcfddQVqJk9pjAZ7/gbrHrvHDDDAAAMMMMAAAwwwwAADDDBwZQOlbCzWCZ93HYE6ua0qEBNk6fLKjce1++FlgAEGGGCAAQYYYIABBhhggAEGzm+gJjcTPm+VbjruritQM3lKYzTY8zdY99g9ZoABBhhggAEGGGCAAQYYYICBKxsoZWOxTvi86wjUyW1VgZggS5dXbjyu3Q8vAwwwwAADDDDAAAMMMMAAAwwwcH4DNbmZ8HmrdNNxd12BmslTGqPBnr/BusfuMQMMMMAAAwwwwAADDDDAAAMMXNlAKRuLdcLnXUegTm6rCsQEWbq8cuNx7X54GWCAAQYYYIABBhhggAEGGGCAgfMbqMnNhM9bpZuOu+sK1Eye0hgN9vwN1j12jxlggAEGGGCAAQYYYIABBhhg4MoGStlYrBM+7zoCdXJbVSAmyNLllRuPa/fDywADDDDAAAMMMMAAAwwwwAADDJzfQE1uJnzeKt103F1XoGbylMZosOdvsO6xe8wAAwwwwAADDDDAAAMMMMAAA1c2UMrGYp3wedcRqJPbqgIxQZYur9x4XLsfXgYYYIABBhhggAEGGGCAAQYYYOD8BmpyM+HzVumm4+66AjWTpzRGgz1/g3WP3WMGGGCAAQYYYIABBhhggAEGGLiygVI2FuuEz7uOQJ3cVhWICbJ0eeXG49r98DLAAAMMMMAAAwwwwAADDDDAAAPnN1CTmwmft0o3HXfXFaiZPKUxGuz5G6x77B4zwAADDDDAAAMMMMAAAwwwwMCVDZSysVgnfN51BOrktqpATJClyys3Htfuh5cBBhhggAEGGGCAAQYYYIABBhg4v4Ga3Ez4vFW66bi7rkDN5CmN0WDP32DdY/eYAQYYYIABBhhggAEGGGCAAQaubKCUjcU64fOuI1Ant1UFYoIsXV658bh2P7wMMMAAAwwwwAADDDDAAAMMMMDA+Q3U5GbC563STcfddQVqJk9pjAZ7/gbrHrvHDDDAAAMMMMAAAwwwwAADDDBwZQOlbCzWCZ93HYE6ua0qEBNk6fLKjce1++FlgAEGGGCAAQYYYIABBhhggAEGzm+gJjcTPm+VbjruritQM3lKYzTY8zdY99g9ZoABBhhggAEGGGCAAQYYYICBKxsoZWOx7tzh84/P5u12a27pv4+vSdj59fH4XdN8NffbW/P5YzK08Ecaf2vu3wtD+lU/v7115xHnMyzz4/1sPt+f7e/J9+213ZvpVeXnkbbJ952t+35vbu+fzc/sq+7a+1oN51b6e3rsVM+3b/0e87o/7Gu63eQUdvRHTJClyys3Htfuh5cBBhhggAEGGGCAAQYYYIABBhg4v4Ga3OzQ4XMbID+Em1lg+hCwRrr5OmRuQ+KX28X23fJ3xqZzvX9LYXgevsZ5RLgcy6b55bU9u+75efch8CQcfxo8p+tJ5zI/t2dB+LOx3fkO4fO0TIf8q2bylMZosOdvsO6xe8wAAwwwwAADDDDAAAMMMMAAA1c2UMrGYt2hw+dJqhlP286ecJ6M6f9oQ+N+3OsnkscQO4WqNePaJ6zzUHg4lz7YHZ5WjqD3dfg8Pe8xlB6+H/Y1fDN+SAFzfh6Fz2MwHefU7eZl+N0G3OPYZ+PGfY6ndLRPMUGWLq/ceFy7H14GGGCAAQYYYIABBhhggAEGGGDg/AZqcrPjh88ROs+f+k1pZ6wbQuD0ZQS+8zj0ScA7H5L9nQfY2ddPP7Zj0/kNgXGEt3EucexYPt3N9Mu4tj5YngS+KXyeXHPThufzJ5Pbp7GHV4bEOfVj39/G12i0R07r40nocWx3Ut15z/c/PeFj/VUzeUpjNNjzN1j32D1mgAEGGGCAAQYYYIABBhhggIErGyhlY7Hu2OHzL5/wfXzncQpcIyRtn9rtQ+v8+6ZJYerjtkN8+vLVFcOI7EMX2rbvWP6t8LkLdF8+wfwsbI+j/rIu41PdY2jdB8pZcD0E7P3+om4Pr+jog/BY39a18LT1PBiP097TMibI0uWVG49r98PLAAMMMMAAAwwwwAADDDDAAAMMnN9ATW527PD5Ia3Mgt6HdemLWaCbv3pj9qRw99R0/g7k2GF/jFK4ehsD7hTgvr2/df/A32+Fz+l46Vh5CN4fOzvXNujN/m7PMguQ46zb84h/ELD/Mm37ED7HBqla2T+SGMFytzqdx1ibfNzDP2Q4XHO24wN8rJk8pTEa7PkbrHvsHjPAAAMMMMAAAwwwwAADDDDAwJUNlLKxWHeK8Hl80nYMRFO++TSYTSt+fDaf8bqJXz0lPHnCeAyex9D2MUlNx42w9uvbZ/MzHSN/7cYQyEa43IXi9++xzPY5jM2+az92Y9vj/PjZ/MxX/+qasuB8vI4uUL5/jE9FxzWkXecB89u3zyx8HrdL4yPQHmoQ598u8yA9P+H9fY4JsnR55cbj2v3wMsAAAwwwwAADDDDAAAMMMMAAA+c3UJObHTp8zgPRl6+nmL8TuQ1BnwSsERD3oXUErxGmdk8hd6Hy+N3z0HQIXmN17DsPYttQ+3X4/DvXNlx7PAGdjhef+3NI+4tritOaXkcXIn/Fyvap665OY0AdK8exsd/JNcd1puHZ5zRmfl6xx70tayZPaYwGe/4G6x67xwwwwAADDDDAAAMMMMAAAwwwcGUDpWws1h06fH4aWEbQO1k5PlHchbrTJ6TboVlgOwlS+/3k36XPj4HseMB87LDv7Mnnz/Q6i/d78/Xjdfg87q3/1F/XVxsi508eP4x8+kWExE9Xtl+OgfJ0TFe728PrP7oafn3EMnvaOw+Zs/A5D6Knx9jfXzFBli6v3Hhcux9eBhhggAEGGGCAAQYYYIABBhhg4PwGanKzE4TPKTTNwuAsfE4h8OsnbftQtX0CeQynUww6CY+zUDoi0sXhc7uD7ljte6CH9ybH8WMZR2qaJh0/Pb3dP8k8hsjddd+GfaRtuu2HJ6Gz12sUvxuewu6C5C6g758Onz1B3Z3ZY1A91KwNm7PXa+Th87y22WXu7WPN5CmN0WDP32DdY/eYAQYYYIABBhhggAEGGGCAAQaubKCUjcW6Q4fPEZJOnkLOwucUaLYBdB5Ot2FoClYjIO0D2yxkHYLUeNdxti7fZynQnbziYjinCIfvzeePr+bzfQyVu/B1DJ/jvCN0jnB2DJ/jmwih5/uK9f2en7x2YzriMVBO66PG3bVGzR7HRs3a887rNQufuzD9yZPn05PZ/K+YIEuXV248rt0PLwMMMMAAAwwwwAADDDDAAAMMMHB+AzW52WHD5zbkbJ/Y7XLKIay9ja9/GBPMLqDt/kG/LPjsnyqehNdpo3jaeP6+6H6H6VgP24wHmz45Hft7/2w+05PY2TnHk8pv3/oguj1eBLzZDrOPj+FztrLw8dfbZSF21RPTWR2fPNE8Ca3zMLpwjntaVTN5SmM02PM3WPfYPWaAAQYYYIABBhhggAEGGGCAgSsbKGVjse6w4fOegspznMvj08yvr+t3xr7ey57XxARZurxy43HtfngZYIABBhhggAEGGGCAAQYYYICB8xuoyc2Ez3tOQJ3bZhWomTylMRrs+Ruse+weM8AAAwwwwAADDDDAAAMMMMDAlQ2UsrFYJ3zeLN504D1XICbI0uWVG49r98PLAAMMMMAAAwwwwAADDDDAAAMMnN9ATW4mfN5zAurcNqtAzeQpjdFgz99g3WP3mAEGGGCAAQYYYIABBhhggAEGrmyglI3FOuHzZvGmA++5AjFBli6v3Hhcux9eBhhggAEGGGCAAQYYYIABBhhg4PwGanIz4fOeE1DntlkFaiZPaYwGe/4G6x67xwwwwAADDDDAAAMMMMAAAwwwcGUDpWws1gmfN4s3HXjPFYgJsnR55cbj2v3wMsAAAwwwwAADDDDAAAMMMMAAA+c3UJObCZ/3nIA6t80qUDN5SmM02PM3WPfYPWaAAQYYYIABBhhggAEGGGCAgSsbKGVjsU74vFm86cB7rkBMkKXLKzce1+6HlwEGGGCAAQYYYIABBhhggAEGGDi/gZrcTPi85wTUuW1WgZrJUxqjwZ6/wbrH7jEDDDDAAAMMMMAAAwwwwAADDFzZQCkbi3XC583iTQfecwVigixdXrnxuHY/vAwwwAADDDDAAAMMMMAAAwwwwMD5DdTkZsLnPSegzm2zCtRMntIYDfb8DdY9do8ZYIABBhhggAEGGGCAAQYYYODKBkrZWKwTPm8WbzrwnisQE2Tp8sqNx7X74WWAAQYYYIABBhhggAEGGGCAAQbOb6AmNxM+7zkBdW6bVaBm8pTGaLDnb7DusXvMAAMMMMAAAwwwwAADDDDAAANXNlDKxmKd8HmzeNOB91yBmCBLl1duPK7dDy8DDDDAAAMMMMAAAwwwwAADDDBwfgM1uZnwec8JqHPbrAI1k6c0RoM9f4N1j91jBhhggAEGGGCAAQYYYIABBhi4soFSNhbrhM+bxZsOvOcKxARZurxy43HtfngZYIABBhhggAEGGGCAAQYYYICB8xuoyc2Ez3tOQJ3bZhWomTylMRrs+Ruse+weM8AAAwwwwAADDDDAAAMMMMDAlQ2UsrFYJ3zeLN504D1XICbI0uWVG49r98PLAAMMMMAAAwwwwAADDDDAAAMMnN9ATW4mfN5zAurcNqtAzeQpjdFgz99g3WP3mAEGGGCAAQYYYIABBhhggAEGrmyglI3FOuHzZvGmA++5AjFBli6v3Hhcux9eBhhggAEGGGCAAQYYYIABBhhg4PwGanIz4fOeE1DntlkFaiZPaYwGe/4G6x67xwwwwAADDDDAAAMMMMAAAwwwcGUDpWws1gmfN4s3HXjPFYgJsnR55cbj2v3wMsAAAwwwwAADDDDAAAMMMMAAA+c3UJObCZ/3nIA6t80qUDN5SmM02PM3WPfYPWaAAQYYYIABBhhggAEGGGCAgSsbKGVjsU74vFm86cB7rkBMkKXLKzce1+6HlwEGGGCAAQYYYIABBhhggAEGGDi/gZrcTPi85wTUuW1WgZrJUxqjwZ6/wbrH7jEDDDDAAAMMMMAAAwwwwAADDFzZQCkbi3XC583iTQfecwVigixdXrnxuHY/vAwwwAADDDDAAAMMMMAAAwwwwMD5DdTkZsLnPSegzm2zCtRMntIYDfb8DdY9do8ZYIABBhhggAEGGGCAAQYYYODKBkrZWKwTPm8WbzrwnisQE2Tp8sqNx7X74WWAAQYYYIABBhhggAEGGGCAAQbOb6AmNxM+7zkBdW6bVaBm8pTGaLDnb7DusXvMAAMMMMAAAwwwwAADDDDAAANXNlDKxmKd8HmzeNOB91yBmCBLl1duPK7dDy8DDDDAAAMMMMAAAwwwwAADDDBwfgM1uZnwec8JqHPbrAI1k6c0RoM9f4N1j91jBhhggAEGGGCAAQYYYIABBhi4soFSNhbrhM+bxZsOvOcKxARZurxy43HtfngZYIABBhhggAEGGGCAAQYYYICB8xuoyc2Ez3tOQJ3bZhWomTylMRrs+Ruse+weM8AAAwwwwAADDDDAAAMMMMDAlQ2UsrFYJ3zeLN504D1XICbI0uWVG49r98PLAAMMMMAAAwwwwAADDDDAAAMMnN9ATW4mfN5zAurcNqtAzeQpjdFgz99g3WP3mAEGGGCAAQYYYIABBhhggAEGrmyglI3FuguGzz+bz/dbc7tV/vf+2fzMItCvj1tz+/jKvkkfv5r77a35/DH7evgzrX+2XdP8/Pb2ZH/Dhj5sVIGYIEuXV248rt0PLwMMMMAAAwwwwAADDDDAAAMMMHB+AzW52WXD5/v3ilTzx2fzNgmfX4fMbYg8GRv7L4Td72/N27MQvN1PF1hXnWccyvIPq0DN5CmN0WDP32DdY/eYAQYYYIABBhhggAEGGGCAAQaubKCUjcW6y4bP6cnnIdj9fm9uk+C4C4zv36bhc/6Ucvv5WXCcfff27WfTPil9uzfts9LpOO0T0mMg3Z7D8P0flp3a0d9YgZggS5dXbjyu3Q8vAwwwwAADDDDAAAMMMMAAAwwwcH4DNbnZZcPn+/f0ZHEXCqeA+O3jPj7lnJ54TusmTz6/euq5D6pfPUnd7qvyFR99cN2F4vMnn7u/h9eFTF79MYbZ7frJuv68v6XgO86jD8P/xoD2zJvXTJ7SGA32/A3WPXaPGWCAAQYYYIABBhhggAEGGGDgygZK2Visu3D43DRNeuL44z6E0Olp5vS08vCEcxY+twH1t+7tz+3TzP2T0vn3TZNC4Nm7n7N9/DqszYPsPHzuvk/n1v0v/7v7PL6Hev53H1oPT3bP1//6rK44IibI0uWVG49r98PLAAMMMMAAAwwwwAADDDDAAAMMnN9ATW527fC5DYvzfwiwD2bjHw8cguP4vn9yuH+yeAip83S2fdI5e7K438dn+ocKhyePn3xuw+HuOA9PPrev5cj2mR/v2br2HCIEz0PsbsP2vIcwOt+Zz1GBmslTGqPBnr/BusfuMQMMMMAAAwwwwAADDDDAAAMMXNlAKRuLdQcNn2dhcCnUzde9CHhv8U7mpumeeo5gdgif+0jyx2fzGa/XaEPfJyFyHC/20W86fUI6Is5+mfY1G980Y2hcCoufr0vbCp9nVf6tP2OCLF1eufG4dj+8DDDAAAMMMMAAAwwwwAADDDDAwPkN1ORmBw2ffytHnA0eny5uX5/x8dX+o4DdKy260Pbt/da+fqPJw+f2aeIxbB5egZEFx3nAnD4P/6Bh0/T/8OC4/cNT0MLn2X3a9s+ayVMao8Gev8G6x+4xAwwwwAADDDDAAAMMMMAAAwxc2UApG4t11w2fv6V/VDB/OvitSaFzGxi3QfP0HxxsnzDOnpAeotEUPvev4cjD52F9/6G0bj62+3t88rl9N/WzY6eB7RPYs1dytOefX9s0CH/+tPTzs7jqtzFBli6v3Hhcux9eBhhggAEGGGCAAQYYYIABBhhg4PwGanKzy4bP6cnj4enl/nUbD39/3Ju3hyeS+1d+tN+PT1GnkHYSMGehdKx7eNo5XtExLPMQOQuf+3dT5+eXjtWF3v359AF4948exrr2yM39Jnz+3RC9ZvKUxmiw52+w7rF7zAADDDDAAAMMMMAAAwwwwAADVzZQysZi3WXD5/yVGC+Dyaev3Ygniueh7zR8bp8uHgLh6bqnx4unrYeVeficvuz+HgLsSSjen0uE2NlxY7v8ej35PBT55YeYIEuXV248rt0PLwMMMMAAAwwwwAADDDDAAAMMMHB+AzW5mfD5IX6chbxtkJvC3eyp5PZVF9Onidvd9N9HQJwHvu2TyhEOv1xmx3g4L1/8mRWomTylMRrs+Ruse+weM8AAAwwwwAADDDDAAAMMMMDAlQ2UsrFYd8Hw+c+MMB3rqBWICbJ0eeXG49r98DLAAAMMMMAAAwwwwAADDDDAAAPnN1CTmwmfj5qOOu9VK1AzeUpjNNjzN1j32D1mgAEGGGCAAQYYYIABBhhggIErGyhlY7FO+LxqhGnnR61ATJClyys3Htfuh5cBBhhggAEGGGCAAQYYYIABBhg4v4Ga3Ez4fNR01HmvWoGayVMao8Gev8G6x+4xAwwwwAADDDDAAAMMMMAAAwxc2UApG4t1wudVI0w7P2oFYoIsXV658bh2P7wMMMAAAwwwwAADDDDAAAMMMMDA+Q3U5GbC56Omo8571QrUTJ7SGA32/A3WPXaPGWCAAQYYYIABBhhggAEGGGDgygZK2VisEz6vGmHa+VErEBNk6fLKjce1++FlgAEGGGCAAQYYYIABBhhggAEGzm+gJjcTPh81HXXeq1agZvKUxmiw52+w7rF7zAADDDDAAAMMMMAAAwwwwAADVzZQysZinfB51QjTzo9agZggS5dXbjyu3Q8vAwwwwAADDDDAAAMMMMAAAwwwcH4DNbmZ8Pmo6ajzXrUCNZOnNEaDPX+DdY/dYwYYYIABBhhggAEGGGCAAQYYuLKBUjYW64TPq0aYdn7UCsQEWbq8cuNx7X54GWCAAQYYYIABBhhggAEGGGCAgfMbqMnNhM9HTUed96oVqJk8pTEa7PkbrHvsHjPAAAMMMMAAAwwwwAADDDDAwJUNlLKxWCd8XjXCtPOjViAmyNLllRuPa/fDywADDDDAAAMMMMAAAwwwwAADDJzfQE1uJnw+ajrqvFetQM3kKY3RYM/fYN1j95gBBhhggAEGGGCAAQYYYIABBq5soJSNxTrh86oRpp0ftQIxQZYur9x4XLsfXgYYYIABBhhggAEGGGCAAQYYYOD8BmpyM+HzUdNR571qBWomT2mMBnv+Buseu8cMMMAAAwwwwAADDDDAAAMMMHBlA6VsLNYJn1eNMO38qBWICbJ0eeXG49r98DLAAAMMMMAAAwwwwAADDDDAAAPnN1CTmwmfj5qOOu9VK1AzeUpjNNjzN1j32D1mgAEGGGCAAQYYYIABBhhggIErGyhlY7FO+LxqhGnnR61ATJClyys3Htfuh5cBBhhggAEGGGCAAQYYYIABBhg4v4Ga3Ez4fNR01HmvWoGayVMao8Gev8G6x+4xAwwwwAADDDDAAAMMMMAAAwxc2UApG4t1wudVI0w7P2oFYoIsXV658bh2P7wMMMAAAwwwwAADDDDAAAMMMMDA+Q3U5GbC56Omo8571QrUTJ7SGA32/A3WPXaPGWCAAQYYYIABBhhggAEGGGDgygZK2VisEz6vGmHa+VErEBNk6fLKjce1++FlgAEGGGCAAQYYYIABBhhggAEGzm+gJjcTPh81HXXeq1agZvKUxmiw52+w7rF7zAADDDDAAAMMMMAAAwwwwAADVzZQysZinfB51QjTzo9agZggS5dXbjyu3Q8vAwwwwAADDDDAAAMMMMAAAwwwcH4DNbmZ8Pmo6ajzXrUCNZOnNEaDPX+DdY/dY1p8DKYAAAhOSURBVAYYYIABBhhggAEGGGCAAQYYuLKBUjYW64TPq0aYdn7UCsQEWbq8cuNx7X54GWCAAQYYYIABBhhggAEGGGCAgfMbqMnNhM9HTUed96oVqJk8pTEa7PkbrHvsHjPAAAMMMMAAAwwwwAADDDDAwJUNlLKxWCd8XjXCtPOjViAmyNLllRuPa/fDywADDDDAAAMMMMAAAwwwwAADDJzfQE1uJnw+ajrqvFetQM3kKY3RYM/fYN1j95gBBhhggAEGGGCAAQYYYIABBq5soJSNxTrh86oRpp0ftQIxQZYur9x4XLsfXgYYYIABBhhggAEGGGCAAQYYYOD8BmpyM+HzUdNR571qBWomT2mMBnv+Buseu8cMMMAAAwwwwAADDDDAAAMMMHBlA6VsLNYJn1eNMO38qBWICbJ0eeXG49r98DLAAAMMMMAAAwwwwAADDDDAAAPnN1CTmwmfj5qOOu9VK1AzeUpjNNjzN1j32D1mgAEGGGCAAQYYYIABBhhggIErGyhlY7FO+LxqhGnnR61ATJClyys3Htfuh5cBBhhggAEGGGCAAQYYYIABBhg4v4Ga3Ez4fNR01HmvWoGayVMao8Gev8G6x+4xAwwwwAADDDDAAAMMMMAAAwxc2UApG4t1wudVI0w7P2oFYoIsXV658bh2P7wMMMAAAwwwwAADDDDAAAMMMMDA+Q3U5GbC56Omo8571QrUTJ7SGA32/A3WPXaPGWCAAQYYYIABBhhggAEGGGDgygZK2VisEz6vGmHa+VErEBNk6fLKjce1++FlgAEGGGCAAQYYYIABBhhggAEGzm+gJjcTPh81HXXeq1agZvKUxmiw52+w7rF7zAADDDDAAAMMMMAAAwwwwAADVzZQysZinfB51QjTzo9agZggS5dXbjyu3Q8vAwwwwAADDDDAAAMMMMAAAwwwcH4DNbmZ8Pmo6ajzXrUCNZOnNEaDPX+DdY/dYwYYYIABBhhggAEGGGCAAQYYuLKBUjYW64TPq0aYdn7UCsQEWbq8cuNx7X54GWCAAQYYYIABBhhggAEGGGCAgfMbqMnNhM9HTUed96oVqJk8pTEa7PkbrHvsHjPAAAMMMMAAAwwwwAADDDDAwJUNlLKxWCd8XjXCtPOjViAmyNLllRuPa/fDywADDDDAAAMMMMAAAwwwwAADDJzfQE1uJnw+ajrqvFetQM3kKY3RYM/fYN1j95gBBhhggAEGGGCAAQYYYIABBq5soJSNxTrh86oRpp0ftQIxQZYur9x4XLsfXgYYYIABBhhggAEGGGCAAQYYYOD8BmpyM+HzUdNR571qBWomT2mMBnv+Buseu8cMMMAAAwwwwAADDDDAAAMMMHBlA6VsLNYJn1eNMO38qBWICbJ0eeXG49r98DLAAAMMMMAAAwwwwAADDDDAAAPnN1CTmwmfj5qOOu9VK1AzeUpjNNjzN1j32D1mgAEGGGCAAQYYYIABBhhggIErGyhlY7FO+LxqhGnnR61ATJClyys3Htfuh5cBBhhggAEGGGCAAQYYYIABBhg4v4Ga3Ez4fNR01HmvWoGayVMao8Gev8G6x+4xAwwwwAADDDDAAAMMMMAAAwxc2UApG4t1wudVI0w7P2oFYoIsXV658bh2P7wMMMAAAwwwwAADDDDAAAMMMMDA+Q3U5GbC56Omo8571QrUTJ7SGA32/A3WPXaPGWCAAQYYYIABBhhggAEGGGDgygZK2VisEz6vGmHa+VErEBNk6fLKjce1++FlgAEGGGCAAQYYYIABBhhggAEGzm+gJjcTPh81HXXeq1agZvKUxmiw52+w7rF7zAADDDDAAAMMMMAAAwwwwAADVzZQysZinfB51QjTzo9agZggS5dXbjyu3Q8vAwwwwAADDDDAAAMMMMAAAwwwcH4DNbmZ8Pmo6ajzXrUCNZOnNEaDPX+DdY/dYwYYYIABBhhggAEGGGCAAQYYuLKBUjYW64TPq0aYdn7UCsQEWbq8cuNx7X54GWCAAQYYYIABBhhggAEGGGCAgfMbqMnNhM9HTUed96oVqJk8pTEa7PkbrHvsHjPAAAMMMMAAAwwwwAADDDDAwJUNlLKxWCd8XjXCtPOjViAmyNLllRuPa/fDywADDDDAAAMMMMAAAwwwwAADDJzfQE1uJnw+ajrqvFetQM3kKY3RYM/fYN1j95gBBhhggAEGGGCAAQYYYIABBq5soJSNxTrh86oRpp0ftQIxQZYur9x4XLsfXgYYYIABBhhggAEGGGCAAQYYYOD8BmpyM+HzUdNR571qBWomT2mMBnv+Buseu8cMMMAAAwwwwAADDDDAAAMMMHBlA6VsLNYJn1eNMO38qBWICbJ0eeXG49r98DLAAAMMMMAAAwwwwAADDDDAAAPnN1CTmwmfj5qOOu9VK1AzeUpjNNjzN1j32D1mgAEGGGCAAQYYYIABBhhggIErGyhlY7FO+LxqhGnnR61ATJClyys3Htfuh5cBBhhggAEGGGCAAQYYYICB/78dO0YBGAahAHr/W2dyFQk4qG/qkFDS+LTwGWBgv4FKbiZ8npqOOnfrDVSaJ9tjwO4fsGqsxgwwwAADDDDAAAMMMMAAAwwwcNlAlo3FmvC5NcL08qk3EA3y+7w8eHy7Hy8DDDDAAAMMMMAAAwwwwAADDDCw30AlNxM+T01Hnbv1BirNk+0xYPcPWDVWYwYYYIABBhhggAEGGGCAAQYYuGwgy8ZiTfjcGmF6+dQbiAb5fV4ePL7dj5cBBhhggAEGGGCAAQYYYIABBhjYb6CSmwmfp6ajzt16A5XmyfYYsPsHrBqrMQMMMMAAAwwwwAADDDDAAAMMXDaQZWOx9gAXTz92twb6HQAAAABJRU5ErkJggg==;" vertex="1" parent="1">
          <mxGeometry x="1250" y="-30" width="1439" height="644" as="geometry" />
        </mxCell>
      </root>
    </mxGraphModel>
  </diagram>
</mxfile>
